<svg width="159" height="181" viewBox="0 0 159 181" fill="none" xmlns="http://www.w3.org/2000/svg">
<path d="M95.3104 118.027C95.2534 116.717 95.0825 115.407 94.6838 114.097C94.1142 112.217 93.2028 110.395 91.9496 108.743C89.956 106.122 87.051 104.129 83.975 102.363C81.4118 100.882 78.6207 99.7428 75.7726 98.6605C75.6017 98.6036 75.4878 98.5466 75.3169 98.4897C76.3992 100.255 77.3675 102.078 77.7093 104.015C77.8802 104.812 77.9371 105.61 77.7663 106.407C77.5954 107.49 76.9688 108.458 76.2283 109.369C75.26 110.509 73.9498 111.42 72.6397 112.331C71.7853 112.901 70.9309 113.414 70.0195 113.926C68.8233 114.667 67.6841 115.407 66.6018 116.262C65.9752 116.66 65.4626 117.173 64.893 117.629C64.3234 118.141 63.6968 118.711 63.1841 119.281C61.5892 121.16 60.6209 123.439 60.507 125.717C60.393 126.572 60.507 127.426 60.5639 128.28C60.8487 131.015 61.874 133.635 63.5829 136.027C64.836 137.736 66.4879 139.217 68.3107 140.527C69.9625 141.666 71.7284 142.749 73.5511 143.66C75.5448 144.628 77.5954 145.483 79.7029 146.28C79.9877 146.394 80.2156 146.508 80.5574 146.565C80.2156 145.995 79.8738 145.426 79.589 144.856C78.6776 143.204 78.0511 141.439 77.9941 139.616C77.9941 138.42 78.3928 137.166 79.1903 136.141C79.5321 135.685 79.9308 135.23 80.3865 134.831C80.9561 134.261 81.6396 133.806 82.2662 133.35C82.8928 132.951 83.5194 132.496 84.1459 132.097C85.8548 131.072 87.5636 129.989 89.1585 128.85C89.8421 128.337 90.5256 127.768 91.2092 127.255C91.38 127.084 91.5509 126.913 91.7218 126.743C92.4053 126.116 93.0319 125.432 93.5446 124.635C94.6268 123.04 95.2534 121.217 95.3673 119.394C95.3673 118.996 95.3104 118.483 95.3104 118.027Z" fill="url(#paint0_linear)"/>
<path d="M121.114 165.248L101.69 158.014L121.114 150.78C125.443 149.185 127.494 144.628 125.728 140.755C123.962 136.882 118.949 135.002 114.62 136.597L79.4751 149.698L44.3299 136.597C40.0009 135.002 34.9882 136.825 33.2224 140.755C31.4566 144.628 33.5073 149.185 37.8363 150.78L57.2602 158.014L37.8363 165.248C33.5073 166.843 31.4566 171.4 33.2224 175.274C34.9882 179.147 40.0009 181.027 44.3299 179.432L79.4751 166.331L114.62 179.432C118.949 181.027 123.962 179.204 125.728 175.274C127.551 171.4 125.5 166.843 121.114 165.248Z" fill="url(#paint1_linear)"/>
<path d="M157.911 111.135L115.076 54.0598L85.6269 14.5855L90.8104 7.69319C92.4053 5.52865 91.8927 2.5097 89.6712 0.971743C87.4497 -0.566215 84.3168 -0.110524 82.7219 2.05401L79.5321 6.32611L76.2853 1.99705C74.6903 -0.167485 71.5575 -0.623176 69.336 0.914781C67.1145 2.45274 66.6018 5.47169 68.1967 7.63623L73.3802 14.5855L33.906 67.4457C33.906 67.4457 33.906 67.5027 33.849 67.5027L1.09621 111.135C-1.92274 115.179 1.83671 120.192 7.93158 120.192H50.083C54.7539 120.192 58.5133 117.287 58.5133 113.698V97.8061C58.5133 88.9201 67.9689 81.6291 79.5321 81.6291C91.0952 81.6291 100.551 88.9201 100.551 97.8061V113.698C100.551 117.287 104.31 120.192 108.981 120.192H151.133C157.17 120.249 160.93 115.179 157.911 111.135Z" fill="url(#paint2_linear)"/>
<defs>
<linearGradient id="paint0_linear" x1="85.9284" y1="95.7181" x2="47.3805" y2="224.346" gradientUnits="userSpaceOnUse">
<stop stop-color="#F7941D"/>
<stop offset="1" stop-color="#F15A29"/>
</linearGradient>
<linearGradient id="paint1_linear" x1="79.467" y1="97.1044" x2="79.467" y2="167.751" gradientUnits="userSpaceOnUse">
<stop stop-color="#A7A9AC"/>
<stop offset="1" stop-color="#58595B"/>
</linearGradient>
<linearGradient id="paint2_linear" x1="79.467" y1="-43.8444" x2="79.467" y2="128.683" gradientUnits="userSpaceOnUse">
<stop stop-color="#A7A9AC"/>
<stop offset="1" stop-color="#58595B"/>
</linearGradient>
</defs>
</svg>
