<svg width="239" height="181" viewBox="0 0 239 181" fill="none" xmlns="http://www.w3.org/2000/svg">
<path d="M237.769 58.6701L199.898 3.23485C198.251 0.795456 194.592 0.795456 192.945 3.23485L155.074 58.6701C153.183 61.4754 155.196 65.2564 158.55 65.2564H171.418L171.662 65.9273C171.662 65.9273 190.689 118.984 162.087 155.209C159.343 158.746 163.246 163.564 167.271 161.551C189.347 150.818 222.218 125.387 221.364 69.5254C221.303 67.147 223.194 65.1954 225.572 65.1954H234.293C237.647 65.2564 239.66 61.4754 237.769 58.6701Z" fill="url(#paint0_linear)"/>
<path d="M233.317 136.853H229.719C227.402 136.853 225.45 134.962 225.45 132.584V76.9655C225.45 74.5871 227.402 72.6966 229.719 72.6966H233.317C235.635 72.6966 237.586 74.5871 237.586 76.9655V132.584C237.586 134.901 235.635 136.853 233.317 136.853Z" fill="url(#paint1_linear)"/>
<path d="M215.998 160.698H212.4C210.021 160.698 208.131 158.807 208.131 156.429V132.035C208.131 129.656 210.021 127.766 212.4 127.766H215.998C218.376 127.766 220.267 129.656 220.267 132.035V156.429C220.267 158.746 218.315 160.698 215.998 160.698Z" fill="url(#paint2_linear)"/>
<path d="M233.317 166.613H229.719C227.402 166.613 225.45 164.723 225.45 162.344V144.476C225.45 142.097 227.341 140.207 229.719 140.207H233.317C235.635 140.207 237.586 142.097 237.586 144.476V162.344C237.586 164.723 235.635 166.613 233.317 166.613Z" fill="url(#paint3_linear)"/>
<path d="M215.998 180.091H212.4C210.021 180.091 208.131 178.2 208.131 175.822V167.406C208.131 165.028 210.021 163.137 212.4 163.137H215.998C218.315 163.137 220.267 165.028 220.267 167.406V175.822C220.267 178.139 218.315 180.091 215.998 180.091Z" fill="url(#paint4_linear)"/>
<path d="M151.964 150.086C156.781 138.072 156.416 123.985 148.914 111.239C148.609 107.092 148.244 102.945 148.122 98.7981C148.122 98.7981 148.061 97.1515 147.634 94.5291C147.634 94.4682 147.634 94.4072 147.634 94.3462C147.634 94.3462 147.634 94.2852 147.573 94.2852C145.926 84.8326 139.096 63.061 111.104 52.8155C102.078 44.9485 90.5519 40.9845 79.0258 40.9845C66.3409 40.9845 53.7171 45.7413 44.3864 55.1939C38.1049 57.9992 32.3114 61.8413 27.4326 66.5981C25.847 68.0617 24.2614 69.7083 22.7978 71.4769C22.7368 71.4769 22.7368 71.5379 22.6758 71.5379V71.5988C19.4436 75.5019 16.7603 80.0757 15.1137 85.4424C13.3451 90.6871 12.3084 96.1148 11.8815 101.603C11.7595 103.494 11.6375 105.384 11.5156 107.275L9.3811 110.812C1.51405 123.924 1.20913 138.438 6.33186 150.757C2.61178 152.404 0.111399 156.185 0.477308 160.393C0.904202 165.515 5.60004 169.297 10.9057 169.297H20.2974C28.4084 175.761 38.8978 179.847 50.8508 179.847H60.9133C66.8288 180.579 73.0493 180.945 79.5137 180.945C85.978 180.945 92.1985 180.579 98.114 179.847H107.201C119.154 179.847 129.643 175.822 137.754 169.297H149.219C154.464 169.297 159.038 165.576 159.587 160.576C160.075 155.514 156.659 151.184 151.964 150.086ZM105.066 126.851C102.688 131.059 99.4557 134.352 95.4917 136.731C92.6254 138.316 89.4542 139.292 85.9171 139.78V150.574C85.9171 153.197 83.7826 155.331 81.1602 155.331H80.7943C78.172 155.331 76.0375 153.197 76.0375 150.574V139.719C72.3784 139.231 68.9633 138.133 65.7921 136.487C65.7311 136.426 65.6701 136.426 65.6091 136.365C61.2182 133.742 57.6811 130.205 55.0587 125.814C52.4974 120.997 51.1557 115.935 51.1557 110.751C51.1557 103.189 53.5951 96.7856 58.4129 91.5409C63.0477 86.1742 68.9633 83.003 76.0375 82.0273V71.2329C76.0375 68.6106 78.172 66.4761 80.7943 66.4761H81.1602C83.7826 66.4761 85.9171 68.6106 85.9171 71.2329V82.0273C88.9053 82.3932 91.7716 83.186 94.4549 84.2837C96.5284 85.1985 98.6019 86.4182 100.614 87.9428C103.176 89.9553 103.481 93.7363 101.163 95.9928C99.2727 97.8833 96.3455 98.1273 94.272 96.4807C90.3689 93.4924 85.978 92.0288 80.9773 92.0288C75.4886 92.0288 70.9148 93.8583 67.1947 97.4564C63.5966 101.055 61.7671 105.506 61.7671 110.69C61.7671 116.118 63.6576 120.753 67.4996 124.473C71.3417 128.071 76.0985 129.9 81.7701 129.9C85.3682 129.9 88.4174 129.108 90.8568 127.522C92.3815 126.668 93.7231 125.509 94.8818 123.985C96.0405 122.46 94.9428 120.265 92.9913 120.265H85.9171C83.1727 120.265 80.9773 118.069 80.9773 115.325C80.9773 112.581 83.1727 110.385 85.9171 110.385H106.713C107.994 110.385 109.03 111.422 109.03 112.703C108.969 117.703 107.689 122.399 105.066 126.851Z" fill="url(#paint5_linear)"/>
<path d="M102.566 38.0572C103.847 34.825 105.371 31.6538 106.53 28.3606C106.774 27.6898 107.14 27.0799 107.506 26.4701C107.933 24.7015 108.908 23.1769 109.457 21.4083C110.616 19.4568 110.921 17.0784 112.202 15.1879C113.482 11.3458 115.312 7.68674 116.592 3.84469C117.08 3.17386 117.385 2.50302 117.568 1.71022C115.373 1.22234 113.055 0.551515 110.86 1.34432C108.847 2.19811 107.445 3.90568 105.737 5.24734C104.7 6.04015 103.481 6.46704 102.383 7.0159C97.3822 7.74772 92.4424 6.10113 87.8686 4.14961C85.1852 3.53977 82.6239 2.38106 79.8796 1.89318C77.8671 1.71022 75.9765 2.38105 74.147 3.05189C70.3659 4.02764 66.8288 5.67424 63.0478 6.65C59.4497 7.50378 55.3637 7.25985 52.3144 5.00341C50.9118 3.72273 49.6311 2.25908 47.8625 1.52727C45.6061 0.673477 42.9837 0.795454 40.7273 1.64924C40.6053 2.68598 41.3981 3.60075 41.7031 4.57651C46.2159 15.7367 51.0338 26.836 55.4856 38.0572C62.7428 34.703 70.7318 32.8735 79.1478 32.8735C87.3807 32.9954 95.3697 34.764 102.566 38.0572Z" fill="url(#paint6_linear)"/>
<defs>
<linearGradient id="paint0_linear" x1="196.85" y1="23.6462" x2="195.322" y2="151.612" gradientUnits="userSpaceOnUse">
<stop stop-color="#24C5C6"/>
<stop offset="0.1452" stop-color="#24BCC6"/>
<stop offset="1" stop-color="#2484C6"/>
</linearGradient>
<linearGradient id="paint1_linear" x1="231.512" y1="72.8199" x2="231.512" y2="176.604" gradientUnits="userSpaceOnUse">
<stop stop-color="#24C5C6"/>
<stop offset="0.1452" stop-color="#24BCC6"/>
<stop offset="1" stop-color="#2484C6"/>
</linearGradient>
<linearGradient id="paint2_linear" x1="214.168" y1="72.8199" x2="214.168" y2="176.604" gradientUnits="userSpaceOnUse">
<stop stop-color="#24C5C6"/>
<stop offset="0.1452" stop-color="#24BCC6"/>
<stop offset="1" stop-color="#2484C6"/>
</linearGradient>
<linearGradient id="paint3_linear" x1="231.512" y1="72.8199" x2="231.512" y2="176.604" gradientUnits="userSpaceOnUse">
<stop stop-color="#24C5C6"/>
<stop offset="0.1452" stop-color="#24BCC6"/>
<stop offset="1" stop-color="#2484C6"/>
</linearGradient>
<linearGradient id="paint4_linear" x1="214.168" y1="72.8198" x2="214.168" y2="176.604" gradientUnits="userSpaceOnUse">
<stop stop-color="#24C5C6"/>
<stop offset="0.1452" stop-color="#24BCC6"/>
<stop offset="1" stop-color="#2484C6"/>
</linearGradient>
<linearGradient id="paint5_linear" x1="106.105" y1="61.0121" x2="-11.8347" y2="452.121" gradientUnits="userSpaceOnUse">
<stop stop-color="#F7941D"/>
<stop offset="1" stop-color="#F15A29"/>
</linearGradient>
<linearGradient id="paint6_linear" x1="101.262" y1="-22.7399" x2="-121.899" y2="298.125" gradientUnits="userSpaceOnUse">
<stop stop-color="#F7941D"/>
<stop offset="1" stop-color="#F15A29"/>
</linearGradient>
</defs>
</svg>
