<svg width="199" height="181" viewBox="0 0 199 181" fill="none" xmlns="http://www.w3.org/2000/svg">
<path d="M194.861 158.093L170.31 133.542L151.798 152.055L176.348 176.606C181.475 181.732 189.791 181.732 194.861 176.606C199.988 171.479 199.988 163.22 194.861 158.093Z" fill="url(#paint0_linear)"/>
<path d="M4.09494 158.093C-1.03165 163.22 -1.03165 171.536 4.09494 176.606C9.22153 181.732 17.538 181.732 22.6076 176.606L47.1583 152.055L28.6456 133.542L4.09494 158.093Z" fill="url(#paint1_linear)"/>
<path d="M48.4115 30.156C50.1773 28.3902 53.1393 28.3902 54.9052 30.156L81.1077 56.3586L94.8926 39.7256L71.0824 10.9598C70.3989 10.2192 69.5444 9.64963 68.5761 9.42178L24.6583 0.592649C21.1836 -0.261783 17.9937 2.87113 18.8481 6.40279L27.6773 50.3775C27.9051 51.3459 28.4747 52.2573 29.2152 52.8839L61.7976 79.827L75.2406 63.5358L48.4115 36.7066C46.5887 34.8838 46.5887 31.9788 48.4115 30.156Z" fill="url(#paint2_linear)"/>
<path d="M170.31 94.9789L154.019 111.27L136.247 89.7953L124.342 99.6498L141.829 117.137C143.595 118.903 143.595 121.865 141.829 123.631C140.064 125.397 137.101 125.397 135.336 123.631L117.222 105.517L105.032 115.599L129.469 135.821L113.177 152.112C119.557 158.492 129.867 158.492 136.247 152.112L170.31 118.049C176.69 111.612 176.69 101.302 170.31 94.9789Z" fill="url(#paint3_linear)"/>
<path d="M175.494 0.478729C175.095 0.478729 174.753 0.535692 174.355 0.592654L130.38 9.42178C129.412 9.64963 128.5 10.2193 127.874 10.9598L99.5065 45.3079L67.2659 84.327L44.9938 111.27L28.7026 94.9789C22.3228 101.359 22.3228 111.669 28.7026 118.049L62.7659 152.112C65.9558 155.302 70.114 156.897 74.2723 156.897C78.4305 156.897 82.5887 155.302 85.7786 152.112L69.4875 135.764L99.5065 110.985L131.747 84.327L169.798 52.8839C170.538 52.2003 171.108 51.3459 171.336 50.3776L180.165 6.40279C180.905 3.26987 178.513 0.478729 175.494 0.478729ZM150.943 36.3079L118.703 68.5485L86.8039 100.447L64.0191 123.232C62.2533 124.998 59.2912 124.998 57.5254 123.232C55.7596 121.466 55.7596 118.504 57.5254 116.738L79.6837 94.5802L112.836 61.4282L144.393 29.8142C146.158 28.0484 149.121 28.0484 150.886 29.8142C152.709 31.5801 152.709 34.5421 150.943 36.3079Z" fill="url(#paint4_linear)"/>
<defs>
<linearGradient id="paint0_linear" x1="159.495" y1="141.248" x2="230.205" y2="211.958" gradientUnits="userSpaceOnUse">
<stop stop-color="#A7A9AC"/>
<stop offset="1" stop-color="#58595B"/>
</linearGradient>
<linearGradient id="paint1_linear" x1="39.4977" y1="141.248" x2="-31.2116" y2="211.958" gradientUnits="userSpaceOnUse">
<stop stop-color="#A7A9AC"/>
<stop offset="1" stop-color="#58595B"/>
</linearGradient>
<linearGradient id="paint2_linear" x1="27.8065" y1="9.55976" x2="151.814" y2="133.567" gradientUnits="userSpaceOnUse">
<stop stop-color="#24C5C6"/>
<stop offset="0.1452" stop-color="#24BCC6"/>
<stop offset="1" stop-color="#2484C6"/>
</linearGradient>
<linearGradient id="paint3_linear" x1="27.8066" y1="9.55976" x2="151.814" y2="133.567" gradientUnits="userSpaceOnUse">
<stop stop-color="#24C5C6"/>
<stop offset="0.1452" stop-color="#24BCC6"/>
<stop offset="1" stop-color="#2484C6"/>
</linearGradient>
<linearGradient id="paint4_linear" x1="184.167" y1="-3.42323" x2="21.4549" y2="159.289" gradientUnits="userSpaceOnUse">
<stop stop-color="#24C5C6"/>
<stop offset="0.1452" stop-color="#24BCC6"/>
<stop offset="1" stop-color="#2484C6"/>
</linearGradient>
</defs>
</svg>
