<svg width="267" height="181" viewBox="0 0 267 181" fill="none" xmlns="http://www.w3.org/2000/svg">
<path d="M198.255 43.368C197.697 42.2527 197.016 41.2613 196.21 40.2699L187.102 29.4885L167.398 6.19071C164.485 2.78279 160.272 0.800003 155.749 0.800003C155.625 0.800003 155.563 0.800003 155.439 0.800003L150.978 0.86196L139.639 1.04785L124.83 1.35766L118.881 1.48158C115.349 1.54354 111.941 2.84475 109.215 5.19931L80.7126 29.7363L72.1618 37.1098C70.303 38.7208 68.8778 40.7656 68.0104 42.9962C67.2668 44.7931 66.895 46.7139 66.895 48.6348V52.6003C66.895 54.2114 67.1429 55.8224 67.6386 57.3095L72.5336 72.1804L76.9949 85.812L81.2703 98.8861L82.7573 103.409L91.1222 128.938L96.6369 145.853L100.293 157.069C101.47 160.724 104.072 163.822 107.48 165.681L131.769 178.941C134.062 180.18 136.54 180.8 139.081 180.8C141.869 180.8 144.596 180.056 147.074 178.569L157.608 172.063C160.706 170.143 162.998 167.23 164.114 163.76L169.938 145.606L175.391 128.628L183.632 102.976L184.685 99.6296L189.27 85.3164L193.174 73.0478L199.06 54.707C200.3 50.9274 199.99 46.8379 198.255 43.368Z" fill="url(#paint0_linear)"/>
<path d="M198.317 91.2647L198.503 90.769C198.379 90.8929 198.193 90.9549 198.069 91.0788C198.131 91.1408 198.193 91.2027 198.317 91.2647Z" fill="url(#paint1_linear)"/>
<path d="M207.921 39.4644C226.509 32.3387 238.778 29.6124 240.575 32.9583C242.744 36.9859 229.546 48.7587 207.053 64.0014L198.503 90.769C243.921 60.4695 271.866 31.7811 265.298 19.6365C259.969 9.84646 233.635 12.9446 197.511 25.7088L204.203 33.578C205.69 35.3749 206.929 37.3577 207.921 39.4644Z" fill="url(#paint2_linear)"/>
<path d="M26.4338 149.137C23.8314 144.366 42.9776 128.628 73.5869 109.172L67.8864 91.8224C22.84 121.998 -4.85711 150.439 1.71087 162.583C7.84513 173.86 41.9863 167.974 86.8469 149.943L81.4561 133.337C50.661 147.093 28.9122 153.723 26.4338 149.137Z" fill="url(#paint3_linear)"/>
<path d="M26.4338 32.9584C28.2307 29.6744 40.1274 32.2148 58.2823 39.1546C59.7694 35.3749 62.1859 31.967 65.346 29.2406L69.4974 25.6468C33.3735 12.9446 7.0396 9.84648 1.77282 19.5745C-4.79516 31.6572 22.6541 59.9119 67.3288 89.9016L58.5301 63.0719C36.9054 48.263 24.327 36.9239 26.4338 32.9584Z" fill="url(#paint4_linear)"/>
<path d="M198.317 91.2647L192.74 108.676C223.783 128.38 243.177 144.366 240.637 149.137C238.158 153.723 216.1 146.969 184.933 133.027L179.604 149.695C224.775 167.912 259.164 173.86 265.298 162.583C271.866 150.315 243.797 121.626 198.317 91.2647Z" fill="url(#paint5_linear)"/>
<defs>
<linearGradient id="paint0_linear" x1="139.031" y1="-31.2617" x2="103.787" y2="469.204" gradientUnits="userSpaceOnUse">
<stop stop-color="#F7941D"/>
<stop offset="1" stop-color="#F15A29"/>
</linearGradient>
<linearGradient id="paint1_linear" x1="206.51" y1="-26.5079" x2="171.266" y2="473.95" gradientUnits="userSpaceOnUse">
<stop stop-color="#F7941D"/>
<stop offset="1" stop-color="#F15A29"/>
</linearGradient>
<linearGradient id="paint2_linear" x1="235.326" y1="-24.4804" x2="200.082" y2="475.985" gradientUnits="userSpaceOnUse">
<stop stop-color="#F7941D"/>
<stop offset="1" stop-color="#F15A29"/>
</linearGradient>
<linearGradient id="paint3_linear" x1="57.3208" y1="-37.016" x2="22.0767" y2="463.449" gradientUnits="userSpaceOnUse">
<stop stop-color="#F7941D"/>
<stop offset="1" stop-color="#F15A29"/>
</linearGradient>
<linearGradient id="paint4_linear" x1="40.7439" y1="-38.1833" x2="5.4998" y2="462.282" gradientUnits="userSpaceOnUse">
<stop stop-color="#F7941D"/>
<stop offset="1" stop-color="#F15A29"/>
</linearGradient>
<linearGradient id="paint5_linear" x1="235.471" y1="-24.4702" x2="200.227" y2="475.995" gradientUnits="userSpaceOnUse">
<stop stop-color="#F7941D"/>
<stop offset="1" stop-color="#F15A29"/>
</linearGradient>
</defs>
</svg>
