<svg width="193" height="181" viewBox="0 0 193 181" fill="none" xmlns="http://www.w3.org/2000/svg">
<path d="M70.4143 53.6444C56.2577 53.6444 44.784 65.1182 44.784 79.2748C44.784 93.4314 56.2577 104.905 70.4143 104.905C84.571 104.905 96.0447 93.4314 96.0447 79.2748C96.0447 65.1752 84.571 53.6444 70.4143 53.6444ZM83.3151 69.2281L80.1185 72.4248C80.8606 73.3952 81.4885 74.4227 81.9451 75.5073C82.2876 76.3635 82.516 77.2769 82.6301 78.3044C82.8014 79.6173 81.7739 80.759 80.461 80.759C79.3764 80.759 78.4631 79.9598 78.3489 78.9323C78.0635 76.9915 77.2643 75.279 75.8372 73.8519C74.296 72.3106 72.4122 71.5115 70.3572 71.4544C68.3023 71.4544 66.4756 72.1965 64.9914 73.6806C63.4502 75.2219 62.651 77.1056 62.651 79.2748C62.7081 81.444 63.5643 83.3277 65.1627 84.926C66.1902 85.9535 67.2748 86.5814 68.4164 86.8668C69.1014 87.0381 69.8435 87.0952 70.5856 86.981C71.3277 86.8669 71.6702 85.9535 71.0993 85.3827L69.0443 83.3277C68.2452 82.5285 68.2452 81.2727 69.0443 80.4735C69.8435 79.6744 71.0993 79.6744 71.8985 80.4735L77.8922 86.4673C78.2347 86.8098 78.2347 87.4377 77.8922 87.7802C76.4652 89.2073 74.7527 90.1777 72.7547 90.6914C70.871 91.2052 68.9872 91.2052 67.1606 90.7485C65.9048 90.406 64.706 89.7781 63.5644 88.8648L60.3677 92.0614C59.6827 92.7464 58.541 92.7464 57.7989 92.0614L57.4564 91.7189C56.7714 91.0339 56.7714 89.8923 57.4564 89.1502L60.6531 85.9535C59.7398 84.7548 59.0548 83.4419 58.6552 82.0719C58.6552 82.0148 58.6552 82.0148 58.6552 81.9577C58.1414 79.9598 58.1414 77.9048 58.6552 75.9069C59.2831 73.7948 60.3677 71.9681 61.8519 70.484C64.021 68.3148 66.5327 67.1732 69.4439 67.059C72.2981 66.8307 74.9239 67.6298 77.2072 69.3994L80.4039 66.2027C81.0889 65.5177 82.2306 65.5177 82.9726 66.2027L83.3151 66.5453C84.0001 67.4015 84.0001 68.5432 83.3151 69.2281Z" fill="#F7941D"/>
<path d="M173.849 73.2811C163.688 73.2811 155.468 81.501 155.468 91.6619C155.468 101.823 163.688 110.043 173.849 110.043C184.01 110.043 192.23 101.823 192.23 91.6619C192.23 81.501 184.01 73.2811 173.849 73.2811ZM183.097 84.4694L180.813 86.7527C181.327 87.4377 181.784 88.1798 182.126 88.9789C182.354 89.6068 182.526 90.2918 182.64 90.9768C182.754 91.8902 182.012 92.7464 181.099 92.7464C180.357 92.7464 179.672 92.1756 179.557 91.4335C179.386 90.0064 178.758 88.8077 177.731 87.7802C176.589 86.6385 175.276 86.0677 173.792 86.0677C172.308 86.0677 171.052 86.5814 169.967 87.666C168.826 88.8077 168.312 90.1206 168.312 91.6619C168.369 93.2031 168.94 94.5731 170.139 95.7147C170.881 96.4568 171.68 96.9135 172.479 97.0848C172.993 97.1989 173.507 97.256 174.02 97.1989C174.591 97.1418 174.762 96.4568 174.42 96.0572L172.936 94.6302C172.365 94.0593 172.365 93.146 172.936 92.5752C173.507 92.0043 174.42 92.0043 174.991 92.5752L179.272 96.8564C179.557 97.1418 179.557 97.5414 179.272 97.8268C178.244 98.8543 177.046 99.5393 175.562 99.8818C174.192 100.224 172.879 100.281 171.566 99.9389C170.652 99.6535 169.796 99.1968 168.997 98.5689L166.714 100.852C166.2 101.366 165.401 101.366 164.887 100.852L164.602 100.681C164.088 100.167 164.088 99.3681 164.602 98.8543L166.885 96.571C166.257 95.7147 165.743 94.8014 165.458 93.831V93.7739C165.115 92.3468 165.115 90.8627 165.458 89.4356C165.915 87.8943 166.657 86.6385 167.741 85.5539C169.282 84.0127 171.109 83.2135 173.164 83.0994C175.219 82.9281 177.103 83.499 178.758 84.7548L181.042 82.4715C181.555 81.9577 182.354 81.9577 182.868 82.4715L183.097 82.6998C183.61 83.1565 183.61 83.9556 183.097 84.4694Z" fill="#F7941D"/>
<path d="M130.238 0.5C112.542 0.5 98.2139 14.8279 98.2139 32.5237C98.2139 50.2195 112.542 64.5473 130.238 64.5473C147.933 64.5473 162.261 50.2195 162.261 32.5237C162.261 14.8279 147.933 0.5 130.238 0.5ZM146.392 19.9654L142.396 23.9612C143.31 25.1599 144.109 26.4729 144.622 27.7858C145.079 28.8703 145.365 30.012 145.536 31.3249C145.764 32.9803 144.508 34.4074 142.853 34.4074C141.54 34.4074 140.341 33.437 140.17 32.1241C139.827 29.6695 138.8 27.5574 136.973 25.7879C135.033 23.847 132.749 22.8195 130.123 22.8195C127.498 22.8195 125.271 23.7329 123.445 25.6166C121.504 27.5574 120.533 29.8978 120.533 32.5807C120.59 35.2637 121.675 37.6041 123.673 39.6591C124.986 40.972 126.356 41.7711 127.783 42.0566C128.639 42.2849 129.553 42.342 130.466 42.2278C131.436 42.1136 131.779 40.9149 131.094 40.2299L128.582 37.7182C127.612 36.7478 127.612 35.1495 128.582 34.1791C129.553 33.2087 131.151 33.2087 132.121 34.1791L139.599 41.657C140.056 42.1136 140.056 42.8557 139.599 43.3124C137.83 45.082 135.66 46.2807 133.149 46.9657C130.808 47.5936 128.468 47.6507 126.185 47.0799C124.586 46.6232 123.102 45.824 121.675 44.7395L117.679 48.7353C116.823 49.5915 115.396 49.5915 114.483 48.7353L114.083 48.3357C113.227 47.4795 113.227 46.0524 114.083 45.1391L118.079 41.1432C116.937 39.6591 116.081 38.0607 115.567 36.2912C115.567 36.2341 115.567 36.2341 115.51 36.177C114.882 33.6653 114.882 31.1537 115.51 28.5849C116.309 25.902 117.622 23.6758 119.506 21.792C122.189 19.1091 125.385 17.682 128.982 17.5108C132.578 17.2254 135.832 18.2529 138.686 20.422L142.682 16.4262C143.538 15.57 144.965 15.57 145.878 16.4262L146.278 16.8258C147.248 17.682 147.248 19.1091 146.392 19.9654Z" fill="#F7941D"/>
<path d="M178.016 117.92C175.619 115.808 172.137 115.865 169.225 116.607C166.143 117.349 163.403 119.119 161.234 121.345C157.58 124.77 153.927 128.252 150.217 131.677C148.961 132.876 147.362 133.561 145.65 133.903C136.003 135.958 126.299 137.956 116.652 140.011C114.882 140.354 113.113 140.982 111.343 140.468C108.375 139.726 105.578 138.47 102.838 137.043C113.113 134.531 123.502 132.533 133.834 130.079C138.8 128.823 141.483 122.601 138.914 118.091C137.43 115.294 134.29 113.411 131.151 113.582C123.216 114.038 115.282 114.038 107.347 113.753C96.1589 113.411 85.0276 112.269 73.8393 112.726C65.2768 113.125 56.6002 114.895 49.1223 119.233C49.1223 119.233 49.0652 119.233 49.0652 119.29C45.1836 121.345 43.6423 126.083 45.469 130.079L55.801 153.198C56.9427 155.709 59.1689 157.479 61.8519 158.05C71.8985 159.99 81.8881 162.045 91.9347 163.986C96.4443 164.957 101.011 165.585 105.463 166.897C109.231 167.868 113.284 167.868 117.051 166.897C119.106 166.441 120.99 165.527 122.988 164.842C134.747 160.904 146.449 157.022 158.208 153.14C160.891 152.341 163.175 150.458 164.887 148.174C169.796 142.066 174.934 136.13 179.843 129.965C182.526 126.368 181.727 120.66 178.016 117.92Z" fill="url(#paint0_linear)"/>
<path d="M21.3228 176.373L1.05827 130.478C-0.482978 126.996 1.11535 122.886 4.59742 121.345L22.7499 113.353C26.232 111.812 30.3419 113.411 31.8832 116.893L52.1477 162.787C53.689 166.27 52.0906 170.38 48.6086 171.921L30.4561 179.912C26.974 181.454 22.864 179.855 21.3228 176.373Z" fill="url(#paint1_linear)"/>
<defs>
<linearGradient id="paint0_linear" x1="220.942" y1="113.279" x2="37.4929" y2="151.43" gradientUnits="userSpaceOnUse">
<stop stop-color="#A7A9AC"/>
<stop offset="1" stop-color="#58595B"/>
</linearGradient>
<linearGradient id="paint1_linear" x1="211.465" y1="78.8752" x2="-4.74547" y2="158.095" gradientUnits="userSpaceOnUse">
<stop stop-color="#A7A9AC"/>
<stop offset="1" stop-color="#58595B"/>
</linearGradient>
</defs>
</svg>
