<svg width="239" height="181" viewBox="0 0 239 181" fill="none" xmlns="http://www.w3.org/2000/svg">
<path d="M93.6675 27.1325C91.4589 30.8748 87.4098 33.3902 82.7472 33.3902H73.6675C68.9436 33.3902 64.8331 30.8135 62.6859 27.0098C27.2871 34.1264 0.600006 65.3534 0.600006 102.838C0.600006 145.537 35.2012 180.2 77.962 180.2C120.723 180.2 155.324 145.599 155.324 102.838C155.263 65.5374 128.821 34.3718 93.6675 27.1325ZM77.9006 162.777C44.7718 162.777 17.962 135.967 17.962 102.838C17.962 69.7092 44.7718 42.8994 77.9006 42.8994C111.029 42.8994 137.839 69.7092 137.839 102.838C137.839 135.967 111.029 162.777 77.9006 162.777Z" fill="url(#paint0_linear)"/>
<path d="M78.9436 91.9791C80.1705 91.9791 81.3975 92.1632 82.6245 92.5926L83.1767 92.7767L75.2012 55.5988C74.465 52.1632 71.0908 50.016 67.7166 50.7521C64.281 51.4883 62.1337 54.8626 62.8699 58.2368L70.8454 95.3534C72.9313 93.2675 75.8147 91.9791 78.9436 91.9791Z" fill="#939598"/>
<path d="M110.723 106.764L86.1828 98.5435L82.6859 97.3779C82.011 97.1325 81.3362 97.0712 80.6613 97.0712C78.0233 97.0712 75.5693 98.7276 74.6491 101.366C74.4037 102.163 74.281 102.899 74.3423 103.697C74.465 106.212 76.1215 108.544 78.6368 109.341L106.674 118.728C107.348 118.973 108.023 119.034 108.698 119.034C111.336 119.034 113.79 117.378 114.71 114.74C115.876 111.488 114.036 107.869 110.723 106.764Z" fill="#939598"/>
<path d="M100.968 4.86257C99.9251 2.71534 97.9619 1.42699 95.8761 1.42699C95.692 1.42699 95.508 1.42699 95.3239 1.42699C92.4405 1.36564 89.373 1.36564 85.5693 1.36564C83.3607 1.36564 81.1521 1.36564 79.0049 1.36564C76.7963 1.36564 74.5877 1.36564 72.4405 1.36564C69.0663 1.36564 66.3669 1.36564 63.7902 1.30429C63.2994 1.36564 62.8699 1.36564 62.3178 1.36564C60.5387 1.36564 58.6981 1.42699 57.2258 2.59264C55.2012 3.94233 54.4037 6.45767 55.1399 9.03436C55.8761 11.5497 57.9006 13.2061 60.2932 13.2675C62.5632 13.3288 65.0172 13.3902 67.7779 13.3902V20.6294C67.7779 22.838 69.0049 24.8012 70.784 25.7828C70.9067 25.8442 71.0294 25.9055 71.1521 25.9669C71.9497 26.335 72.8086 26.5804 73.7902 26.5804H82.8699C83.1153 26.5804 83.3607 26.5804 83.6675 26.519C84.1583 26.4577 84.6491 26.335 85.1399 26.1509C85.3853 26.0896 85.5693 25.9669 85.8147 25.8442C87.6552 24.8012 88.8822 22.8994 88.8822 20.6294V13.3902C89.9865 13.3902 91.0294 13.3902 92.011 13.4515C92.3791 13.4515 92.7472 13.4515 93.1153 13.4515H93.1767H93.2994C95.8147 13.4515 98.9435 13.4515 100.6 10.8748C101.766 9.2184 101.95 6.88711 100.968 4.86257Z" fill="url(#paint1_linear)"/>
<path d="M237.717 57.8074L199.618 2.04049C197.962 -0.4135 194.281 -0.4135 192.625 2.04049L154.526 57.8074C152.625 60.6294 154.649 64.4331 158.023 64.4331H170.968L171.214 65.108C171.214 65.108 190.355 118.482 161.582 154.924C158.821 158.482 162.747 163.329 166.796 161.304C189.005 150.507 222.072 124.924 221.213 68.7276C221.152 66.335 223.054 64.3718 225.447 64.3718H234.22C237.594 64.4331 239.618 60.6294 237.717 57.8074Z" fill="url(#paint2_linear)"/>
<path d="M233.238 136.396H229.618C227.287 136.396 225.324 134.433 225.324 132.102V76.1509C225.324 73.7583 227.226 71.8564 229.618 71.8564H233.238C235.569 71.8564 237.532 73.7583 237.532 76.1509V132.102C237.532 134.494 235.569 136.396 233.238 136.396Z" fill="url(#paint3_linear)"/>
<path d="M215.815 160.445H212.195C209.864 160.445 207.901 158.482 207.901 156.151V131.611C207.901 129.218 209.802 127.317 212.195 127.317H215.815C218.207 127.317 220.109 129.218 220.109 131.611V156.151C220.109 158.482 218.146 160.445 215.815 160.445Z" fill="url(#paint4_linear)"/>
<path d="M233.238 166.396H229.618C227.226 166.396 225.324 164.494 225.324 162.102V144.126C225.324 141.734 227.226 139.832 229.618 139.832H233.238C235.569 139.832 237.532 141.734 237.532 144.126V162.102C237.532 164.433 235.569 166.396 233.238 166.396Z" fill="url(#paint5_linear)"/>
<path d="M215.815 179.893H212.195C209.864 179.893 207.901 177.991 207.901 175.599V167.132C207.901 164.74 209.864 162.838 212.195 162.838H215.815C218.207 162.838 220.109 164.74 220.109 167.132V175.599C220.109 177.991 218.146 179.893 215.815 179.893Z" fill="url(#paint6_linear)"/>
<defs>
<linearGradient id="paint0_linear" x1="76.5588" y1="8.01601" x2="79.176" y2="192.091" gradientUnits="userSpaceOnUse">
<stop stop-color="#A7A9AC"/>
<stop offset="1" stop-color="#58595B"/>
</linearGradient>
<linearGradient id="paint1_linear" x1="77.458" y1="31.1845" x2="78.7666" y2="-11.5626" gradientUnits="userSpaceOnUse">
<stop stop-color="#A7A9AC"/>
<stop offset="1" stop-color="#58595B"/>
</linearGradient>
<linearGradient id="paint2_linear" x1="196.555" y1="22.5461" x2="195.018" y2="151.278" gradientUnits="userSpaceOnUse">
<stop stop-color="#24C5C6"/>
<stop offset="0.1452" stop-color="#24BCC6"/>
<stop offset="1" stop-color="#2484C6"/>
</linearGradient>
<linearGradient id="paint3_linear" x1="231.424" y1="72.0139" x2="231.424" y2="176.419" gradientUnits="userSpaceOnUse">
<stop stop-color="#24C5C6"/>
<stop offset="0.1452" stop-color="#24BCC6"/>
<stop offset="1" stop-color="#2484C6"/>
</linearGradient>
<linearGradient id="paint4_linear" x1="213.976" y1="72.0139" x2="213.976" y2="176.419" gradientUnits="userSpaceOnUse">
<stop stop-color="#24C5C6"/>
<stop offset="0.1452" stop-color="#24BCC6"/>
<stop offset="1" stop-color="#2484C6"/>
</linearGradient>
<linearGradient id="paint5_linear" x1="231.424" y1="72.0139" x2="231.424" y2="176.419" gradientUnits="userSpaceOnUse">
<stop stop-color="#24C5C6"/>
<stop offset="0.1452" stop-color="#24BCC6"/>
<stop offset="1" stop-color="#2484C6"/>
</linearGradient>
<linearGradient id="paint6_linear" x1="213.976" y1="72.0138" x2="213.976" y2="176.419" gradientUnits="userSpaceOnUse">
<stop stop-color="#24C5C6"/>
<stop offset="0.1452" stop-color="#24BCC6"/>
<stop offset="1" stop-color="#2484C6"/>
</linearGradient>
</defs>
</svg>
