<?xml version="1.0" standalone="no"?>
<!DOCTYPE svg PUBLIC "-//W3C//DTD SVG 20010904//EN"
 "http://www.w3.org/TR/2001/REC-SVG-20010904/DTD/svg10.dtd">
<svg version="1.0" xmlns="http://www.w3.org/2000/svg"
 width="2048.000000pt" height="2048.000000pt" viewBox="0 0 2048.000000 2048.000000"
 preserveAspectRatio="xMidYMid meet">
<metadata>
Created by potrace 1.11, written by Peter Selinger 2001-2013
</metadata>
<g transform="translate(0.000000,2048.000000) scale(0.100000,-0.100000)"
fill="#000000" stroke="none">
<path d="M11565 16288 c-66 -11 -165 -54 -165 -70 0 -5 -4 -7 -9 -4 -5 3 -14
-1 -21 -9 -7 -8 -16 -15 -21 -15 -11 0 -133 -73 -141 -85 -5 -6 -8 -6 -8 0 0
6 -3 6 -8 -1 -4 -5 -25 -21 -47 -34 -22 -13 -50 -32 -62 -43 -13 -11 -23 -17
-23 -13 0 4 -6 2 -12 -4 -38 -31 -92 -70 -98 -70 -4 0 -19 -11 -33 -24 l-27
-25 -27 24 c-16 13 -41 36 -58 50 -44 37 -196 111 -225 109 -98 -5 -148 -18
-240 -62 -19 -9 -37 -17 -40 -17 -23 -4 -118 -40 -130 -50 -8 -7 -25 -16 -37
-19 -13 -4 -23 -12 -23 -18 0 -6 -3 -8 -6 -5 -4 3 -36 -19 -73 -51 -36 -31
-70 -60 -76 -65 -5 -4 -20 -15 -32 -25 -11 -9 -31 -24 -44 -32 -46 -31 -141
-112 -146 -126 -3 -8 -9 -11 -14 -8 -5 3 -9 -1 -9 -8 0 -23 -43 -42 -100 -42
-30 -1 -59 -4 -65 -7 -5 -4 -32 -10 -60 -14 -60 -10 -47 -7 -120 -30 -33 -11
-65 -19 -71 -20 -6 0 -18 -5 -25 -11 -8 -6 -30 -17 -49 -24 -19 -7 -39 -17
-44 -22 -6 -4 -18 -8 -28 -8 -10 0 -18 -4 -18 -9 0 -7 -15 -14 -60 -26 -6 -1
-93 -40 -130 -58 -14 -7 -27 -14 -30 -17 -3 -3 -24 -14 -47 -25 -22 -11 -39
-23 -37 -26 2 -4 -8 -10 -21 -13 -14 -4 -23 -11 -20 -16 3 -6 2 -10 -3 -10
-10 0 -39 -23 -92 -73 -19 -18 -47 -42 -61 -52 -14 -11 -26 -23 -27 -27 -1 -5
-10 -16 -19 -26 -39 -41 -133 -184 -133 -201 0 -5 -7 -14 -15 -21 -8 -7 -15
-20 -15 -30 0 -36 -23 -40 -79 -13 -30 14 -67 26 -83 27 -15 1 -28 4 -28 7 0
29 -224 -54 -237 -87 -3 -8 -11 -14 -19 -14 -8 0 -14 -3 -14 -8 0 -4 -10 -18
-22 -32 -13 -14 -36 -45 -53 -70 -16 -25 -33 -47 -38 -48 -4 -2 -5 -8 -1 -13
3 -5 0 -9 -6 -9 -6 0 -8 -4 -5 -10 3 -5 3 -10 -2 -10 -4 0 -14 -13 -21 -30
-11 -23 -18 -29 -35 -25 -12 3 -38 7 -59 9 -20 2 -41 7 -47 10 -6 4 -11 3 -11
-2 0 -5 -10 -8 -22 -7 -29 2 -88 -19 -99 -36 -7 -11 -9 -11 -9 -1 0 7 -5 10
-10 7 -6 -4 -8 -11 -5 -16 6 -8 -8 -13 -27 -10 -5 0 -8 -5 -8 -12 0 -6 -14
-21 -30 -32 -16 -11 -30 -23 -30 -27 0 -5 -6 -8 -14 -8 -8 0 -18 -9 -21 -20
-3 -11 -10 -20 -14 -20 -5 0 -22 -14 -40 -30 -17 -17 -31 -28 -31 -26 0 2 -29
-25 -65 -61 -36 -36 -65 -68 -65 -72 0 -3 -9 -13 -20 -21 -11 -8 -20 -18 -20
-23 0 -7 -9 -18 -67 -83 -12 -13 -20 -24 -18 -24 5 0 -44 -73 -54 -80 -12 -8
-56 -84 -53 -92 1 -5 -3 -8 -8 -8 -6 0 -10 -9 -10 -19 0 -11 -4 -22 -9 -25 -4
-3 -14 -34 -21 -68 -7 -35 -15 -70 -17 -78 -8 -34 -2 -220 7 -220 3 0 6 -8 7
-17 2 -25 10 -63 22 -101 5 -18 10 -35 10 -37 1 -3 2 -7 2 -10 1 -3 3 -9 4
-15 1 -5 3 -11 5 -12 1 -2 3 -10 5 -18 1 -8 10 -42 18 -75 30 -115 27 -157
-13 -193 -13 -12 -13 -13 0 -7 13 6 13 5 0 -7 -8 -7 -37 -58 -65 -113 -27 -55
-54 -103 -60 -107 -5 -4 -7 -8 -3 -8 4 0 -3 -21 -17 -47 -13 -26 -21 -51 -19
-55 3 -4 1 -8 -4 -8 -9 0 -27 -47 -24 -62 1 -5 -2 -8 -7 -8 -8 0 -25 -56 -22
-72 0 -5 -4 -8 -9 -8 -6 0 -10 -9 -10 -20 0 -11 -5 -20 -12 -20 -6 0 -9 -3 -5
-6 3 -4 -1 -23 -9 -43 -9 -20 -18 -47 -20 -61 -3 -14 -9 -39 -15 -56 -5 -17
-12 -41 -14 -53 -7 -28 -12 -53 -17 -70 -3 -12 -44 -58 -180 -202 -25 -27 -44
-49 -41 -49 6 0 -20 -28 -222 -237 -219 -227 -304 -313 -310 -313 -3 0 -13 -8
-24 -17 -10 -10 -33 -29 -50 -43 -64 -50 -95 -75 -117 -97 -13 -13 -26 -23
-29 -23 -4 0 -18 -11 -33 -25 -53 -50 -96 -85 -104 -85 -5 0 -6 -4 -3 -10 3
-5 2 -10 -3 -10 -4 0 -24 -13 -42 -30 -18 -16 -38 -30 -42 -30 -5 0 -6 -4 -3
-10 3 -5 1 -10 -5 -10 -6 0 -29 -17 -52 -37 -22 -21 -46 -37 -52 -35 -6 2 -8
1 -4 -3 3 -4 -12 -23 -35 -43 -23 -20 -54 -50 -69 -65 -15 -15 -28 -26 -28
-24 0 3 -27 -22 -59 -54 -32 -33 -64 -59 -70 -59 -6 0 -11 -4 -11 -9 0 -12
-199 -211 -211 -211 -5 0 -9 -7 -9 -17 0 -9 -3 -14 -6 -11 -3 3 -30 -18 -60
-48 -30 -30 -54 -52 -54 -49 0 2 -13 -8 -29 -23 -15 -15 -41 -36 -57 -47 -15
-11 -36 -28 -46 -37 -10 -10 -20 -18 -23 -18 -3 0 -17 -10 -30 -22 -37 -35
-54 -49 -58 -46 -3 3 -24 -16 -92 -78 -18 -18 -36 -30 -39 -27 -2 3 -11 -4
-18 -16 -7 -12 -16 -21 -20 -21 -4 0 -37 -29 -72 -64 -36 -35 -67 -61 -70 -58
-4 3 -6 1 -6 -5 0 -13 -68 -83 -81 -83 -5 0 -9 -4 -9 -10 0 -5 -18 -28 -40
-50 -22 -22 -40 -44 -40 -50 0 -5 -8 -10 -17 -10 -9 0 -14 -2 -11 -5 3 -3 -13
-25 -36 -48 -22 -24 -52 -57 -66 -74 -13 -17 -28 -29 -32 -27 -4 3 -8 0 -8 -5
0 -23 -39 -70 -52 -64 -5 2 -8 -1 -8 -7 0 -6 -11 -21 -25 -34 -14 -13 -25 -25
-25 -28 0 -3 -22 -29 -50 -58 -27 -30 -47 -56 -45 -58 2 -2 -6 -14 -18 -26
-26 -25 -77 -92 -79 -103 0 -5 -9 -14 -20 -21 -10 -7 -16 -17 -13 -22 3 -4 1
-10 -3 -12 -5 -1 -31 -37 -58 -78 -27 -41 -53 -78 -59 -82 -5 -4 -6 -8 -1 -8
5 0 3 -7 -4 -15 -7 -8 -9 -15 -4 -15 5 0 4 -4 -2 -8 -12 -8 -69 -123 -66 -134
1 -5 -3 -8 -10 -8 -6 0 -8 -3 -5 -6 3 -4 1 -16 -5 -28 -7 -11 -13 -24 -14 -28
-1 -5 -3 -10 -4 -13 -1 -3 -4 -9 -5 -15 -1 -5 -4 -13 -5 -17 -1 -5 -2 -11 -1
-16 0 -4 -4 -7 -11 -7 -6 0 -9 -3 -6 -6 4 -3 0 -20 -7 -39 -8 -18 -11 -35 -8
-39 4 -3 1 -6 -6 -6 -7 0 -10 -4 -6 -9 3 -5 1 -12 -5 -16 -15 -9 -12 -27 3
-20 6 4 5 1 -4 -7 -9 -7 -14 -19 -12 -25 3 -7 1 -13 -4 -13 -6 0 -10 -6 -11
-12 -1 -24 -13 -71 -21 -87 -5 -9 -6 -22 -4 -28 3 -7 1 -13 -4 -13 -4 0 -9
-15 -10 -32 -4 -50 -6 -58 -13 -58 -4 0 -5 -11 -2 -25 2 -14 0 -25 -4 -25 -5
0 -9 -12 -9 -27 -1 -16 -4 -50 -8 -78 -10 -66 -13 -93 -22 -195 -4 -47 -11
-90 -16 -96 -5 -6 -6 -14 -2 -17 8 -8 11 -87 3 -87 -3 0 -4 -24 -3 -52 1 -29
2 -87 4 -129 1 -42 -1 -81 -5 -88 -4 -6 -4 -11 1 -11 4 0 8 -22 8 -50 0 -27 2
-50 5 -50 3 0 6 -15 6 -33 2 -56 12 -141 17 -157 8 -23 30 -123 30 -137 0 -7
3 -13 6 -13 4 0 8 -12 9 -27 1 -15 6 -29 10 -32 4 -3 7 -13 7 -21 0 -8 5 -21
12 -28 7 -7 13 -22 13 -33 0 -10 5 -19 12 -19 6 0 9 -3 5 -6 -3 -3 6 -29 21
-57 14 -29 25 -54 24 -57 0 -3 6 -9 14 -13 8 -5 12 -12 9 -18 -4 -5 -1 -9 4
-9 6 0 11 -7 11 -15 0 -8 5 -15 10 -15 6 0 10 -7 10 -15 0 -8 4 -15 9 -15 5 0
14 -13 21 -30 7 -16 17 -27 23 -23 6 4 8 0 5 -9 -4 -9 4 -22 18 -33 13 -10 24
-22 24 -27 0 -6 14 -23 31 -39 17 -16 28 -29 24 -29 -4 0 15 -22 43 -49 27
-28 47 -52 44 -55 -3 -4 1 -6 9 -6 8 -1 25 -14 39 -30 13 -17 30 -30 37 -30 7
0 12 -3 12 -7 -3 -19 2 -34 10 -29 4 3 18 -2 29 -12 52 -44 63 -52 68 -52 5 0
23 -14 55 -43 10 -9 25 -17 33 -17 8 0 22 -10 30 -22 9 -12 16 -19 16 -14 0 5
11 1 25 -8 14 -9 25 -13 25 -9 0 4 7 -2 16 -13 8 -10 12 -12 8 -4 -6 12 -3 11
12 -2 10 -9 31 -20 47 -23 15 -4 27 -12 27 -17 0 -6 7 -8 15 -5 8 4 17 2 20
-4 4 -5 10 -7 15 -4 5 3 11 1 15 -5 3 -5 17 -10 31 -10 13 0 24 -5 24 -12 0
-6 3 -9 6 -5 7 6 100 -18 128 -34 13 -8 16 -7 11 1 -4 7 3 5 16 -3 23 -15 87
-33 102 -29 4 1 7 -2 7 -7 0 -5 17 -12 38 -17 38 -8 46 -10 60 -14 4 -1 11 -2
16 -1 4 1 14 -4 22 -10 8 -6 14 -8 14 -3 0 5 5 2 10 -6 7 -10 10 -11 10 -2 0
9 8 9 35 -2 26 -11 35 -12 35 -3 0 8 3 8 8 2 8 -11 12 -12 68 -19 22 -2 39 -5
39 -6 0 -2 88 -10 142 -13 29 -1 53 -6 53 -10 0 -4 9 -3 20 3 11 6 20 7 20 2
0 -4 24 -8 54 -7 30 0 53 2 51 5 -2 3 15 6 38 6 50 1 120 13 127 23 5 5 24 10
58 13 6 1 12 5 12 10 0 5 4 7 9 3 5 -3 12 -1 16 5 4 6 11 8 16 5 5 -4 9 -1 9
5 0 6 4 9 9 5 6 -3 14 3 20 12 5 10 12 17 15 16 3 -2 10 -3 15 -3 14 0 102 91
109 113 1 4 2 8 3 10 19 63 17 144 -6 192 -16 35 -70 120 -85 135 -16 16 -70
100 -70 109 0 6 -5 11 -11 11 -5 0 -7 5 -4 10 3 6 2 10 -3 10 -9 0 -25 37 -23
53 1 4 -5 7 -12 7 -7 0 -13 9 -14 19 -1 11 -12 36 -25 58 -25 39 -51 98 -49
108 1 3 -5 13 -14 21 -8 9 -13 19 -10 24 3 5 1 11 -5 15 -5 3 -10 15 -10 26 0
10 -5 19 -11 19 -8 0 -8 5 1 15 7 8 8 15 3 15 -6 0 -9 10 -7 23 10 86 16 109
33 151 11 25 18 46 15 46 -3 0 4 10 16 22 11 12 20 28 20 35 0 7 5 13 12 13 6
0 9 3 5 6 -6 6 5 21 60 84 18 20 30 40 26 44 -3 3 1 6 10 6 10 0 16 3 15 8 -3
7 34 54 64 80 9 9 15 19 12 24 -3 4 3 8 12 8 10 0 15 3 12 6 -7 6 39 54 52 54
6 0 10 7 10 16 0 8 4 13 9 10 5 -4 11 -3 13 2 1 4 42 33 90 65 48 31 104 72
123 92 20 19 41 35 46 35 6 0 7 4 4 10 -3 6 -2 10 3 10 5 0 20 9 33 20 12 12
39 31 59 42 19 12 38 27 42 32 4 6 11 11 16 11 13 0 81 78 76 87 -3 4 -1 8 5
8 5 0 14 12 19 28 10 26 11 27 17 5 4 -13 10 -23 14 -23 3 0 22 -25 41 -55 19
-30 38 -55 43 -55 4 0 7 -4 7 -10 0 -11 24 -43 58 -75 12 -12 22 -26 22 -30 0
-4 14 -21 30 -37 17 -15 30 -30 30 -33 0 -2 36 -40 80 -84 44 -44 80 -85 80
-91 0 -5 4 -10 8 -10 5 0 66 -56 135 -124 70 -68 127 -122 127 -119 0 4 8 -4
19 -15 10 -12 22 -22 26 -22 5 0 15 -7 24 -15 9 -8 28 -26 43 -40 15 -14 30
-25 34 -25 4 0 19 -12 33 -27 15 -16 30 -29 34 -30 23 -5 28 -10 27 -28 -8
-181 -8 -435 0 -440 6 -3 6 -15 0 -29 -5 -13 -6 -26 -4 -29 3 -3 7 -33 10 -68
6 -80 12 -134 14 -134 1 0 4 -15 7 -34 5 -41 52 -141 65 -141 5 0 6 -5 2 -12
-4 -7 -3 -8 5 -4 6 4 14 0 17 -8 3 -9 14 -16 24 -16 11 0 22 -5 25 -11 5 -6
37 -9 85 -7 43 2 77 5 75 9 -2 3 13 14 33 25 20 10 46 27 57 36 11 10 24 17
28 17 7 0 59 40 98 76 9 8 19 15 22 15 4 0 15 8 25 17 37 35 73 64 151 120 42
31 101 96 101 113 0 18 17 11 150 -55 72 -36 130 -62 130 -58 0 5 4 3 8 -2 4
-6 25 -18 47 -27 22 -9 60 -24 85 -34 25 -10 47 -22 50 -26 3 -4 15 -9 25 -11
11 -2 36 -10 55 -19 66 -29 135 -56 155 -60 11 -1 22 -5 25 -8 3 -3 32 -14 65
-24 33 -10 69 -22 80 -26 11 -4 23 -8 28 -9 4 0 22 -7 41 -15 19 -8 37 -12 40
-8 3 3 6 0 6 -6 0 -6 7 -9 15 -6 8 4 15 1 15 -5 0 -6 3 -10 8 -9 4 1 41 -9 82
-22 41 -13 82 -24 90 -25 8 -1 22 -5 30 -8 8 -4 26 -8 40 -9 14 -2 30 -6 35
-9 11 -6 52 -11 98 -12 15 -1 27 -5 27 -10 0 -4 4 -6 9 -3 5 4 31 2 58 -4 26
-5 59 -12 73 -15 14 -2 50 -11 80 -18 30 -8 58 -15 63 -16 4 0 8 -1 10 -2 12
-4 49 -9 79 -11 21 -2 38 -5 38 -8 0 -3 12 -5 28 -6 15 0 56 -4 92 -8 101 -11
160 -16 218 -18 28 -1 52 -6 52 -11 0 -4 6 -5 13 0 14 8 87 11 87 2 0 -6 588
-2 645 5 22 3 49 7 60 9 19 4 55 -30 55 -51 0 -6 16 -27 35 -48 19 -20 33 -40
30 -43 -2 -4 5 -14 16 -21 10 -8 19 -19 19 -24 0 -5 13 -22 30 -37 16 -16 26
-29 22 -29 -21 0 58 -33 88 -36 41 -4 100 13 100 28 0 6 3 9 6 6 3 -4 22 12
42 35 20 23 45 50 55 61 9 11 17 23 17 27 0 4 6 14 14 22 8 7 24 33 35 58 47
94 63 116 87 118 57 4 64 6 64 15 0 5 3 6 6 3 4 -3 14 -2 24 3 9 5 30 12 46
15 46 10 48 10 59 17 13 8 78 22 88 20 5 -2 6 2 3 7 -5 7 51 22 78 20 5 0 12
4 15 9 3 5 48 24 100 41 52 17 99 35 105 39 11 7 32 12 54 14 6 1 12 5 12 10
0 5 4 7 9 3 5 -3 13 0 16 6 4 5 13 8 21 5 8 -3 14 -1 14 4 0 6 6 10 14 10 7 0
27 7 42 15 16 8 37 15 47 15 9 0 17 5 17 10 0 6 3 9 8 9 4 -1 10 0 15 1 4 1
10 3 15 4 21 6 62 30 62 37 0 5 6 6 14 3 7 -3 20 1 27 8 8 7 50 31 94 53 44
22 82 42 85 45 5 5 60 32 70 35 29 7 50 18 50 27 0 6 3 9 6 6 3 -4 32 7 64 23
32 16 64 29 69 29 6 0 11 5 11 10 0 6 3 9 8 8 8 -2 84 33 92 43 5 6 51 32 88
48 12 6 22 15 22 21 0 6 5 8 10 5 6 -3 10 -1 10 5 0 6 5 8 10 5 6 -3 10 -2 10
3 0 5 10 14 23 21 39 21 147 90 157 101 3 3 35 25 73 50 37 24 67 47 67 52 0
4 3 7 8 7 18 -3 33 2 28 10 -3 4 6 13 20 19 25 12 39 22 74 54 10 9 20 15 22
12 2 -2 20 11 39 28 19 18 38 31 42 30 4 -1 10 5 13 13 4 8 10 15 16 15 5 0
30 19 55 43 25 23 49 41 54 40 4 -2 11 6 14 17 4 11 11 20 17 20 5 0 35 25 66
55 104 99 133 125 143 125 6 0 8 4 5 8 -3 5 4 15 16 23 26 18 78 72 78 81 0 4
9 10 20 13 11 3 20 13 20 21 0 8 11 19 25 26 13 6 22 15 19 19 -3 5 -1 9 3 9
5 0 32 21 60 48 49 45 196 181 271 250 19 17 39 32 45 32 6 0 7 3 4 7 -4 3 5
15 20 25 16 10 25 18 21 18 -4 0 20 27 52 60 32 33 57 60 54 60 -3 0 10 15 28
33 18 17 60 64 93 102 33 39 74 84 92 101 17 18 29 34 26 38 -4 3 1 6 10 6 10
0 17 -6 17 -13 0 -7 9 -19 19 -27 11 -7 18 -17 15 -22 -3 -4 0 -8 5 -8 6 0 11
-7 11 -15 0 -8 4 -15 9 -15 5 0 20 -20 32 -45 12 -25 25 -45 28 -45 4 0 15
-17 26 -37 11 -21 26 -44 33 -51 7 -8 10 -18 7 -23 -4 -5 1 -9 10 -9 11 0 15
-5 11 -15 -3 -8 -1 -15 4 -15 6 0 10 -7 10 -15 0 -8 4 -15 8 -15 5 0 14 -16
22 -35 8 -19 17 -35 22 -35 4 0 8 -9 8 -20 0 -11 3 -20 8 -20 8 0 32 -49 31
-64 0 -5 3 -12 8 -15 5 -3 17 -24 27 -46 11 -22 24 -43 30 -47 7 -5 6 -8 -4
-8 -10 0 -11 -3 -4 -8 13 -8 64 -127 64 -149 0 -7 4 -13 8 -13 4 0 9 -12 10
-27 1 -15 5 -29 10 -32 7 -6 11 -29 15 -78 1 -13 6 -23 10 -23 5 0 7 -6 4 -12
-2 -7 0 -24 5 -38 22 -56 25 -349 5 -400 -3 -8 -8 -35 -11 -59 -3 -25 -9 -47
-13 -50 -5 -3 -8 -15 -7 -26 0 -11 -8 -37 -18 -57 -10 -21 -16 -38 -12 -38 4
0 1 -7 -6 -15 -7 -8 -9 -15 -4 -15 5 0 4 -4 -1 -8 -13 -9 -61 -104 -57 -114 1
-4 -3 -8 -8 -8 -6 0 -15 -11 -20 -25 -5 -14 -14 -25 -20 -25 -6 0 -9 -4 -6 -9
4 -5 2 -11 -3 -13 -5 -1 -11 -10 -13 -17 -2 -8 -13 -25 -25 -37 -13 -12 -23
-24 -23 -28 0 -6 -23 -35 -47 -61 -7 -8 -13 -18 -13 -24 0 -6 -8 -11 -17 -11
-9 0 -14 -3 -10 -6 3 -4 -9 -22 -29 -40 -19 -19 -31 -34 -28 -34 4 0 -5 -11
-20 -25 -15 -14 -32 -22 -38 -19 -7 4 -8 2 -4 -5 4 -6 0 -14 -8 -17 -9 -3 -14
-9 -12 -13 2 -3 -17 -5 -42 -4 -26 1 -54 -1 -62 -4 -25 -11 -50 -11 -43 0 3 6
1 7 -6 3 -6 -4 -18 -2 -26 4 -8 7 -15 9 -15 5 0 -4 7 -13 16 -20 13 -9 13 -12
3 -13 -15 -1 -53 -9 -56 -12 -2 -2 -7 -4 -13 -5 -5 -1 -12 -4 -15 -5 -3 -1 -8
-3 -12 -4 -5 -1 -13 -5 -20 -9 -6 -4 -15 -2 -19 4 -5 8 -3 9 6 4 9 -6 11 -4 5
5 -6 10 -3 12 13 8 12 -4 20 -3 17 2 -7 11 20 20 45 15 11 -2 20 0 20 5 0 13
-49 6 -85 -11 -21 -10 -29 -21 -27 -34 3 -16 1 -17 -11 -6 -12 9 -17 9 -23 0
-4 -8 -3 -9 4 -5 7 4 12 5 12 2 0 -4 -58 -36 -67 -36 -1 0 -3 5 -3 10 0 6 3 9
8 8 4 -2 19 10 34 25 15 15 23 27 18 27 -5 0 -11 -4 -14 -9 -3 -4 -17 -7 -31
-6 -14 2 -23 -1 -20 -5 3 -5 12 -7 20 -3 10 3 13 1 10 -9 -9 -24 -35 -17 -42
11 -6 23 -7 24 -14 6 -11 -28 -10 -43 1 -25 7 10 10 11 11 3 3 -23 4 -28 12
-40 5 -8 4 -13 -2 -13 -6 0 -11 3 -11 8 0 18 -53 63 -69 58 -9 -4 -5 3 9 15
23 19 23 19 2 9 -12 -6 -28 -8 -34 -4 -6 4 -8 3 -5 -3 4 -7 -11 -9 -41 -8 -26
1 -51 0 -56 -3 -12 -7 -76 -11 -76 -5 0 2 5 14 11 26 l12 22 -23 -20 c-20 -17
-22 -17 -17 -3 3 10 1 20 -5 24 -6 4 -8 3 -5 -3 8 -13 -19 -37 -32 -29 -5 4
-12 2 -15 -2 -3 -5 -22 -8 -41 -7 -20 1 -38 -2 -41 -7 -7 -12 -24 -10 -24 3 0
5 4 7 10 4 5 -3 7 0 4 9 -5 12 -8 12 -23 -2 -10 -9 -16 -20 -14 -24 4 -8 -23
-12 -57 -10 -8 0 -18 -4 -21 -10 -4 -6 -15 -12 -26 -13 -10 -1 -26 -5 -35 -9
-9 -4 -22 -8 -30 -10 -7 -1 -20 -6 -28 -11 -22 -14 -48 -16 -55 -5 -4 7 3 9
20 6 22 -4 25 -3 15 9 -9 11 -17 12 -30 5 -13 -7 -20 -6 -23 3 -4 9 -6 9 -6 0
-1 -6 4 -15 9 -18 6 -3 10 -14 9 -23 0 -10 -3 -12 -5 -5 -3 7 -12 9 -20 6 -10
-4 -12 0 -8 11 4 10 1 16 -7 16 -7 0 -9 -3 -6 -7 4 -3 1 -13 -6 -21 -8 -11 -8
-14 0 -9 6 4 14 3 17 -2 4 -5 -2 -8 -11 -7 -10 2 -24 -3 -31 -11 -8 -7 -17
-11 -22 -8 -5 3 -11 -1 -13 -7 -4 -10 -6 -10 -6 0 -1 8 -6 10 -13 6 -8 -5 -7
0 2 11 13 17 13 18 -1 13 -9 -4 -26 0 -37 8 -21 15 -112 16 -112 2 0 -5 -8 -8
-19 -8 -10 0 -24 -7 -31 -15 -7 -8 -16 -12 -21 -10 -4 3 -11 0 -16 -8 -4 -7
-21 -21 -38 -31 -16 -11 -35 -26 -41 -35 -10 -13 -14 -13 -28 -2 -22 18 -11
28 11 10 17 -12 17 -12 1 6 -13 14 -20 16 -31 7 -8 -7 -16 -10 -19 -7 -3 3
-11 -2 -19 -12 -12 -15 -12 -16 1 -8 41 25 69 -5 32 -35 -12 -10 -18 -21 -14
-25 4 -5 1 -5 -5 -1 -8 4 -13 1 -13 -8 0 -9 -7 -16 -15 -16 -8 0 -14 -5 -13
-12 2 -6 -5 -14 -16 -16 -11 -2 -16 0 -12 6 9 15 -13 25 -28 13 -7 -6 -15 -9
-18 -6 -2 3 -5 -2 -5 -10 0 -13 2 -13 17 0 18 17 34 20 25 6 -3 -5 -1 -12 5
-16 5 -3 10 -11 10 -17 0 -6 -6 -6 -15 2 -9 7 -18 10 -22 6 -3 -3 -2 -6 4 -6
15 0 10 -45 -4 -46 -26 -3 -28 -5 -13 -14 12 -8 11 -10 -7 -10 -13 0 -23 -4
-23 -10 0 -5 6 -7 13 -4 8 3 13 -4 14 -16 1 -14 -2 -18 -10 -13 -18 11 -38 12
-31 2 3 -5 9 -7 14 -4 4 3 22 -8 39 -25 27 -24 31 -26 25 -8 -4 14 -2 18 5 14
6 -4 11 -14 11 -22 0 -8 5 -12 10 -9 6 3 10 -1 10 -10 0 -12 -6 -15 -21 -10
-15 5 -19 4 -15 -4 4 -6 13 -11 19 -11 7 0 18 -9 25 -20 11 -19 3 -28 -12 -13
-13 13 -35 11 -48 -5 -11 -13 -11 -14 2 -7 25 15 38 14 56 -6 15 -17 15 -19 0
-25 -9 -3 -22 -4 -30 -1 -9 4 -13 0 -11 -11 1 -9 -3 -21 -9 -25 -7 -6 -6 -7 4
-4 8 2 14 10 12 16 -1 6 5 11 14 11 8 0 12 -4 9 -10 -3 -6 1 -7 9 -4 9 3 14
10 13 14 -1 5 7 16 18 24 16 13 17 15 3 10 -11 -4 -18 -1 -18 6 0 6 10 10 22
8 11 -2 23 2 25 8 2 5 -9 10 -23 10 -15 -1 -29 4 -31 11 -3 7 4 11 16 10 11 0
17 -5 15 -9 -10 -15 9 -8 21 9 10 14 12 11 10 -17 -1 -18 -9 -37 -19 -42 -9
-5 -14 -13 -11 -19 4 -5 -2 -6 -12 -2 -16 6 -16 5 -4 -10 7 -9 11 -18 7 -18
-3 -1 -10 -2 -15 -3 -10 -1 -52 -51 -51 -61 0 -3 -2 -5 -5 -5 -3 0 -9 0 -15 0
-5 0 -7 7 -4 15 4 8 9 13 13 11 4 -3 13 4 19 15 12 19 12 19 -13 3 -14 -9 -25
-21 -25 -26 0 -5 -6 -6 -12 -2 -14 8 9 -24 27 -39 6 -5 3 -7 -7 -3 -12 4 -18
0 -18 -11 0 -11 -3 -13 -13 -5 -9 8 -17 8 -27 0 -12 -8 -11 -9 5 -4 15 5 12
-1 -12 -24 -33 -31 -50 -39 -37 -17 5 8 2 8 -9 -2 -9 -7 -17 -19 -17 -26 0 -8
-15 -25 -32 -40 -32 -25 -32 -25 -8 -22 14 2 43 12 65 24 38 19 71 21 60 3 -3
-5 0 -12 6 -16 8 -5 9 -3 4 6 -6 10 -4 12 7 7 17 -6 19 16 3 30 -4 4 -5 2 -1
-4 8 -15 -10 -18 -19 -4 -3 6 3 15 14 20 14 8 21 8 24 -2 3 -7 6 -4 6 6 1 10
5 16 11 12 5 -3 7 -13 4 -23 -5 -15 -4 -15 6 1 6 9 16 14 22 11 7 -4 8 -2 4 5
-4 6 -12 8 -18 5 -7 -4 -8 -2 -4 5 4 6 12 9 17 6 5 -4 9 -2 9 2 0 5 9 14 21
21 17 11 20 11 14 0 -4 -7 2 -2 14 12 l20 25 -6 -25 c-4 -14 -14 -31 -22 -38
-14 -11 -13 -11 7 -2 12 6 23 7 23 3 1 -4 2 -12 3 -18 2 -19 31 -75 38 -75 5
0 8 -4 8 -10 0 -12 60 -70 72 -70 5 0 6 -5 2 -12 -4 -6 -3 -8 3 -5 6 4 24 -6
40 -21 16 -15 36 -28 44 -30 8 -2 21 -9 29 -16 23 -19 128 -66 164 -73 11 -2
25 -8 33 -14 7 -6 13 -8 13 -4 0 4 6 2 13 -4 8 -6 17 -8 20 -4 4 3 12 1 20 -5
7 -6 26 -13 42 -16 17 -2 30 -5 30 -6 0 -19 591 -34 614 -16 12 9 13 8 6 -3
-6 -11 -5 -12 6 -5 8 5 23 9 34 10 11 1 40 4 64 8 25 4 65 9 90 11 40 3 113
11 186 21 11 1 20 3 20 4 0 1 14 3 30 5 17 2 41 6 55 9 52 11 76 15 120 20 64
8 73 10 89 20 10 7 12 5 6 -3 -6 -10 -3 -11 14 -2 11 7 21 10 21 7 0 -2 15 0
33 4 42 12 97 23 120 24 9 0 17 3 17 6 0 4 6 7 13 7 30 1 92 14 97 21 3 4 15
7 28 6 12 -1 22 2 22 6 0 7 80 30 113 33 9 1 17 5 17 9 0 4 3 7 8 6 7 -2 80
21 97 31 6 3 21 7 35 9 13 2 30 7 36 13 6 5 14 6 17 2 4 -3 7 0 7 7 0 7 3 10
7 7 3 -4 12 -2 20 4 7 6 13 8 13 4 0 -4 7 -2 15 5 8 7 15 9 15 5 0 -4 6 -3 13
2 14 12 89 38 100 35 4 -1 7 2 7 6 0 4 8 8 18 9 10 1 49 12 87 24 39 12 76 22
82 22 7 0 13 4 13 8 0 4 13 6 29 5 17 -1 28 2 25 6 -3 4 3 8 13 8 11 0 23 4
28 9 6 5 26 14 45 19 19 5 59 19 88 31 28 11 52 17 52 13 0 -4 4 -2 8 5 4 6
16 13 27 15 11 1 23 6 26 11 3 4 16 10 29 12 13 2 27 10 30 16 4 6 9 10 11 9
2 -1 21 5 43 14 21 9 42 16 46 16 5 0 10 3 12 8 4 9 80 46 91 44 4 -1 7 1 7 6
0 4 15 13 33 21 17 8 34 18 37 22 3 4 12 9 20 11 8 2 25 13 38 26 13 12 27 20
32 17 4 -3 11 2 14 11 3 8 10 12 16 9 5 -3 10 -2 10 2 0 5 38 36 85 68 46 33
84 66 85 73 0 7 4 11 9 8 5 -3 23 8 41 24 18 16 36 27 41 24 5 -3 9 1 9 8 0 7
9 19 21 26 17 11 20 11 14 0 -4 -7 2 -2 13 11 12 15 24 21 32 16 8 -5 11 -4 7
2 -4 6 1 17 11 25 36 31 40 29 31 -15 -4 -23 -8 -46 -9 -52 0 -5 -5 -3 -10 5
-5 8 -10 10 -10 4 0 -5 4 -14 10 -20 6 -6 6 -21 1 -40 -6 -22 -5 -31 3 -31 7
0 13 9 13 19 1 10 12 28 25 39 13 11 17 18 11 14 -20 -10 -15 2 10 26 12 12
16 19 10 15 -16 -9 -5 23 14 42 6 7 10 19 7 27 -4 8 -1 15 6 15 6 0 9 4 6 8
-12 20 90 126 129 134 11 2 19 10 17 17 -3 17 97 113 110 105 6 -4 8 -3 5 3
-7 11 62 80 75 75 5 -1 8 2 8 7 0 12 78 89 85 83 3 -3 5 -1 5 4 0 6 21 33 48
61 26 27 56 62 67 78 11 15 30 39 43 53 12 14 22 31 22 38 0 8 3 14 8 14 4 0
13 14 20 30 8 17 18 28 22 25 5 -3 7 4 5 15 -2 11 0 20 4 20 9 0 41 65 41 85
0 7 4 15 9 17 5 2 11 12 13 23 1 11 6 22 10 25 4 3 9 15 11 25 2 11 10 34 17
50 7 17 12 36 11 43 -1 6 3 12 9 12 6 0 9 4 5 9 -3 5 -1 20 4 33 9 22 19 53
21 63 1 3 6 19 11 37 6 18 12 42 14 53 6 30 13 60 15 60 1 0 3 9 5 20 9 60 14
94 21 130 4 22 8 56 9 75 2 19 4 35 5 35 7 0 4 263 -2 278 -6 11 -5 17 4 17 8
0 9 3 3 8 -5 4 -11 21 -12 37 -6 102 -9 125 -14 125 -3 0 -6 6 -6 13 0 18 -12
99 -19 127 -3 14 -7 36 -8 50 -1 14 -6 31 -10 38 -4 7 -4 16 -1 22 3 6 2 10
-4 10 -5 0 -8 9 -6 20 2 11 0 22 -5 25 -5 3 -7 12 -3 20 3 8 0 15 -6 15 -6 0
-8 7 -5 15 3 8 2 20 -2 27 -9 14 -13 30 -17 70 -1 16 -5 28 -9 28 -5 0 -8 7
-8 16 0 29 -74 263 -81 258 -4 -2 -5 4 -2 15 3 10 0 22 -6 25 -6 4 -11 18 -11
32 0 14 -4 22 -10 19 -5 -3 -10 3 -10 14 0 10 -15 55 -34 99 -19 44 -32 83
-29 86 4 3 1 6 -5 6 -7 0 -12 9 -12 20 0 11 -4 20 -10 20 -5 0 -10 8 -10 17 0
9 -8 25 -17 36 -13 15 -14 18 -3 12 11 -6 10 -3 -2 12 -10 11 -18 27 -18 36 0
9 -4 17 -10 17 -5 0 -10 9 -10 20 0 11 -5 20 -10 20 -6 0 -9 3 -8 8 1 4 -5 21
-12 37 -7 17 -13 33 -12 38 1 4 -2 7 -6 7 -4 0 -14 16 -21 35 -7 19 -16 35
-20 35 -3 0 -8 10 -8 22 -1 13 -7 24 -13 26 -5 2 -8 7 -5 12 3 5 -2 16 -11 24
-8 9 -13 16 -11 16 3 0 -21 51 -53 114 -32 63 -55 117 -52 120 3 3 1 6 -5 6
-11 0 -40 59 -35 73 1 4 -2 7 -7 7 -5 0 -14 14 -21 30 -7 17 -15 30 -19 30 -4
0 -12 12 -19 28 -24 51 -37 72 -45 72 -4 0 -5 5 -2 10 3 6 2 10 -4 10 -5 0
-12 8 -15 18 -3 9 -17 30 -31 46 -14 16 -25 35 -25 43 0 7 -7 13 -15 13 -8 0
-15 7 -15 15 0 7 -8 19 -17 24 -10 6 -15 11 -10 11 4 0 -1 8 -10 18 -10 11
-26 30 -35 43 -10 13 -33 42 -53 63 -19 21 -35 43 -35 48 0 5 -4 6 -10 3 -5
-3 -10 0 -10 8 0 7 -10 23 -22 34 -32 29 -117 127 -118 135 -1 4 -20 27 -43
52 -81 87 -106 116 -101 116 3 0 -11 17 -30 38 -20 20 -39 45 -42 55 -3 9 -9
15 -14 12 -4 -3 -14 8 -21 24 -7 16 -17 27 -21 25 -4 -3 -8 0 -8 5 0 6 -8 19
-17 30 -10 10 -29 33 -43 51 -14 17 -42 50 -62 72 -21 22 -38 44 -38 49 0 6
-4 7 -10 4 -5 -3 -10 -2 -10 4 0 5 -18 29 -40 52 -22 24 -40 47 -40 52 0 4 -4
5 -10 2 -5 -3 -10 -2 -10 4 0 13 -76 91 -89 91 -6 0 -10 3 -9 8 2 4 -63 73
-144 153 -81 81 -145 149 -143 151 2 2 -9 12 -26 23 -16 11 -29 23 -29 27 0 3
-20 27 -45 52 -25 26 -45 51 -45 56 0 6 -7 10 -15 10 -8 0 -15 4 -15 9 0 5
-49 60 -110 122 -60 62 -110 115 -110 119 0 4 -11 13 -25 20 -13 7 -22 17 -19
22 3 4 -1 8 -8 8 -8 0 -9 3 -3 8 17 12 32 46 29 65 -1 9 1 17 5 17 4 0 8 6 8
13 0 6 3 23 6 37 3 14 10 54 17 90 15 80 18 95 20 95 1 0 3 14 5 30 2 17 7 41
10 55 8 29 16 70 17 88 1 6 4 12 8 12 3 0 7 10 7 23 1 12 5 38 9 57 4 19 7 78
7 130 -2 108 -3 120 -14 120 -4 0 -5 9 -2 20 3 11 0 20 -6 20 -6 0 -11 11 -11
25 0 13 -9 41 -21 61 -29 52 -69 110 -69 100 0 -4 -14 4 -31 18 -17 14 -35 26
-40 26 -6 0 -6 7 0 19 15 27 30 99 38 182 6 74 7 261 0 289 -2 8 -7 33 -12 55
-4 22 -13 47 -19 55 -7 8 -18 28 -26 44 -8 16 -25 33 -37 39 -13 6 -23 13 -23
16 0 11 -81 31 -132 34 -27 1 -48 6 -48 10 0 4 -8 3 -19 -2 -10 -6 -21 -8 -24
-4 -4 3 -32 6 -64 7 -41 1 -57 5 -56 14 2 6 -1 12 -5 12 -5 0 -9 6 -10 13 0 6
-2 19 -4 28 -4 19 -138 291 -147 299 -3 3 -15 21 -25 40 -11 19 -30 46 -43 60
-13 14 -23 31 -23 38 0 7 -4 10 -10 7 -5 -3 -10 1 -10 9 0 8 -8 20 -17 25 -10
6 -15 11 -10 11 7 0 2 6 -50 64 -13 14 -23 28 -23 31 0 3 -11 17 -25 31 -14
14 -25 29 -25 34 0 6 -8 10 -17 10 -9 0 -14 3 -10 6 3 3 -28 39 -69 81 -41 41
-74 79 -74 84 0 5 -3 9 -8 9 -6 0 -36 25 -145 125 -10 8 -29 21 -42 27 -23 10
-29 20 -26 41 0 4 -3 7 -7 7 -4 0 -8 9 -9 20 -2 17 -31 110 -50 160 -4 8 -7
18 -8 23 -2 4 -4 10 -5 15 -1 4 -2 10 -1 15 0 4 -3 7 -9 7 -5 0 -10 7 -10 15
0 9 -7 30 -16 46 -8 17 -17 40 -19 50 -10 49 -113 167 -172 196 -18 8 -33 20
-33 25 0 5 -4 7 -9 4 -5 -3 -14 1 -21 9 -7 8 -19 15 -26 15 -8 0 -14 5 -14 10
0 6 -9 10 -19 10 -11 0 -21 5 -23 10 -7 22 -116 16 -220 -11 -24 -6 -51 -11
-60 -12 -10 -1 -18 -4 -18 -8 0 -4 -8 -6 -17 -4 -10 1 -23 -1 -28 -6 -6 -4
-23 -10 -38 -13 -15 -2 -32 -8 -38 -12 -7 -4 -19 -7 -28 -8 -9 -1 -32 -7 -52
-14 -36 -12 -88 -4 -90 15 -2 25 -11 48 -55 143 -27 58 -52 107 -56 108 -5 2
-8 9 -8 15 0 12 -103 178 -135 217 -54 66 -215 233 -215 224 0 -3 -7 1 -15 8
-36 33 -46 39 -55 33 -6 -3 -10 -2 -10 2 0 9 -6 10 -80 14 -45 2 -175 -13
-175 -21 0 -1 -11 -3 -25 -4 -36 -4 -146 -25 -217 -41 -13 -3 -33 -7 -44 -10
-12 -2 -38 -10 -58 -17 -20 -7 -40 -12 -44 -13 -4 0 -12 -7 -17 -15 -5 -8 -10
-11 -10 -6 0 5 -7 3 -15 -4 -8 -7 -15 -9 -15 -4 0 5 -4 4 -8 -2 -4 -6 -24 -20
-44 -31 -21 -11 -35 -23 -31 -27 3 -3 -1 -6 -10 -6 -9 0 -17 -4 -17 -8 0 -5
-11 -14 -25 -20 -31 -14 -35 -15 -35 -3 0 9 -66 76 -161 163 -38 34 -42 38
-124 103 -27 22 -55 45 -62 50 -7 6 -18 15 -25 21 -26 21 -123 84 -130 84 -4
0 -19 5 -35 12 -15 6 -35 13 -43 15 -36 8 -139 9 -185 1z m6370 -10428 c3 -5
-1 -10 -10 -10 -9 0 -13 5 -10 10 3 6 8 10 10 10 2 0 7 -4 10 -10z m-3476 -64
c-2 -2 -15 -9 -29 -15 -24 -11 -24 -11 -6 3 16 13 49 24 35 12z m-89 -30 c0
-2 -7 -7 -16 -10 -8 -3 -12 -2 -9 4 6 10 25 14 25 6z m620 -46 c0 -5 -5 -10
-11 -10 -5 0 -7 5 -4 10 3 6 8 10 11 10 2 0 4 -4 4 -10z m-205 -10 c3 -6 -1
-7 -9 -4 -18 7 -21 14 -7 14 6 0 13 -4 16 -10z m-539 -26 c1 -9 0 -13 -4 -10
-3 4 -7 14 -8 22 -1 9 0 13 4 10 3 -4 7 -14 8 -22z m-28 -19 c-3 -3 -9 2 -12
12 -6 14 -5 15 5 6 7 -7 10 -15 7 -18z m578 13 c4 -7 3 -8 -4 -4 -7 4 -12 2
-12 -5 0 -7 -3 -10 -6 -6 -6 5 3 27 11 27 2 0 7 -5 11 -12z m-211 -26 c-3 -3
-11 0 -18 7 -9 10 -8 11 6 5 10 -3 15 -9 12 -12z m-400 -12 c3 -5 1 -10 -4
-10 -6 0 -11 5 -11 10 0 6 2 10 4 10 3 0 8 -4 11 -10z m336 -7 c13 -17 13 -17
-6 -3 -11 8 -22 16 -24 17 -2 2 0 3 6 3 6 0 17 -8 24 -17z m264 7 c3 -5 1 -10
-4 -10 -6 0 -11 5 -11 10 0 6 2 10 4 10 3 0 8 -4 11 -10z m-37 -25 c-3 -3 -9
2 -12 12 -6 14 -5 15 5 6 7 -7 10 -15 7 -18z m-469 -8 c13 4 13 3 2 -5 -8 -6
-21 -7 -30 -4 -14 5 -14 4 -2 -12 11 -13 16 -14 23 -4 6 10 10 10 17 -1 10
-16 -3 -51 -18 -51 -5 0 -8 -8 -7 -17 3 -21 -29 -47 -60 -49 -11 0 -27 -4 -34
-9 -8 -5 -11 -4 -6 3 3 5 3 12 -1 15 -5 2 -2 2 5 0 7 -1 10 2 7 7 -9 14 9 12
23 -2 8 -8 12 -9 12 -1 0 6 -3 13 -7 16 -5 2 -2 2 5 0 8 -1 10 2 6 9 -5 7 -3
8 7 3 12 -7 11 -5 -1 11 -11 15 -11 16 0 7 17 -15 44 -17 35 -3 -4 6 -10 8
-15 5 -5 -3 -11 -1 -15 4 -3 6 -13 7 -23 4 -14 -6 -15 -4 -4 9 10 12 10 18 1
23 -8 6 -7 10 2 16 9 5 10 9 3 9 -7 0 -14 6 -17 14 -4 10 0 14 14 11 10 -2 19
1 19 6 0 6 10 3 21 -5 12 -8 29 -12 38 -9z m226 -6 c-8 -14 -25 -14 -25 0 0 5
5 7 10 4 6 -3 10 -1 10 6 0 7 3 10 6 6 3 -3 3 -10 -1 -16z m225 15 c0 -2 -8
-10 -17 -17 -16 -13 -17 -12 -4 4 13 16 21 21 21 13z m-556 -37 c-2 -4 4 -10
13 -13 12 -5 13 -10 6 -17 -12 -12 -36 -3 -28 11 3 5 0 12 -6 16 -8 5 -9 3 -4
-5 6 -10 3 -11 -14 -2 -11 7 -21 14 -21 17 0 3 4 3 9 -1 6 -3 16 1 23 9 9 9
15 10 20 3 4 -6 5 -14 2 -18z m364 6 c-3 -3 -9 2 -12 12 -6 14 -5 15 5 6 7 -7
10 -15 7 -18z m-208 -1 c0 -8 -19 -13 -24 -6 -3 5 1 9 9 9 8 0 15 -2 15 -3z
m193 -7 c3 -8 2 -20 -3 -26 -5 -9 -7 -4 -7 13 0 29 2 32 10 13z m-763 -7 c-13
-8 -13 -13 -2 -31 7 -11 11 -24 8 -27 -3 -3 -6 1 -6 9 0 12 -2 12 -10 -1 -5
-9 -5 -19 0 -26 6 -6 7 -14 3 -17 -9 -9 -23 -9 -22 1 3 20 -2 32 -12 26 -8 -4
-7 -9 2 -16 11 -7 10 -8 -4 -4 -13 4 -16 2 -11 -7 6 -9 5 -9 -7 0 -13 10 -16
10 -16 -2 0 -7 5 -13 11 -12 6 1 10 -7 8 -18 -2 -16 -1 -17 7 -5 8 11 11 11
11 2 0 -7 5 -10 12 -6 7 4 8 3 4 -4 -5 -8 -2 -10 8 -6 9 3 16 10 16 16 0 5 -4
7 -9 4 -4 -3 -17 1 -27 10 -18 15 -18 15 2 9 12 -3 28 0 35 8 8 7 25 13 38 14
19 2 21 -1 12 -10 -7 -7 -17 -12 -23 -12 -6 0 -13 -7 -15 -15 -4 -12 -3 -12 5
-2 5 8 12 13 16 13 17 -2 37 13 32 25 -6 16 10 28 19 14 3 -5 11 -10 17 -10 6
0 5 7 -3 17 -8 9 -9 14 -2 10 6 -4 13 -1 16 5 2 7 8 9 13 5 5 -4 2 -12 -5 -16
-9 -6 -10 -11 -2 -15 6 -4 11 -2 11 3 0 7 7 7 20 -1 11 -7 20 -17 20 -22 0 -6
-5 -5 -12 2 -20 20 -32 13 -14 -7 11 -12 13 -21 7 -25 -5 -4 -8 -15 -6 -26 2
-11 1 -19 -3 -18 -4 1 -24 -6 -45 -15 -21 -9 -45 -13 -54 -10 -12 5 -14 3 -8
-7 5 -9 4 -11 -3 -6 -7 4 -12 2 -12 -5 0 -7 -2 -10 -5 -7 -3 3 0 17 6 32 10
21 10 29 0 39 -11 10 -12 8 -7 -10 4 -13 2 -24 -6 -29 -7 -4 -10 -4 -6 0 10
11 -14 34 -29 29 -7 -3 -13 -1 -13 4 0 5 -7 10 -15 10 -8 0 -15 -4 -15 -9 0
-4 -9 -3 -19 4 -11 7 -17 17 -12 23 12 16 11 56 -1 49 -7 -4 -8 -2 -4 4 5 9
13 9 26 2 11 -6 21 -6 24 -1 3 5 -2 12 -11 15 -12 5 -13 10 -5 18 9 9 17 7 32
-7 22 -20 28 -8 8 14 -8 8 -8 11 -2 8 7 -4 14 2 17 13 3 11 11 20 19 20 10 0
9 -3 -2 -10z m943 -10 c-3 -12 -8 -19 -11 -16 -5 6 5 36 12 36 2 0 2 -9 -1
-20z m42 11 c3 -5 2 -12 -3 -15 -5 -3 -9 1 -9 9 0 17 3 19 12 6z m-605 -16 c3
-1 20 -10 37 -21 l33 -21 -34 -16 c-22 -10 -33 -22 -32 -34 1 -15 -6 -18 -41
-17 -24 1 -43 -3 -43 -9 0 -6 -2 -8 -5 -5 -3 3 -3 13 1 22 4 11 13 15 26 10
14 -4 18 -2 14 5 -13 20 -15 51 -3 48 6 -1 12 4 13 11 1 6 3 15 4 20 1 4 2 11
1 15 -1 5 4 5 11 0 7 -4 15 -8 18 -8z m349 5 c-6 -5 -18 -6 -26 -3 -19 8 -16
11 13 11 17 0 22 -3 13 -8z m-675 -36 c9 -23 -48 -42 -61 -21 -3 6 -1 7 5 3 6
-3 15 1 20 11 8 13 6 21 -6 30 -14 11 -13 11 10 2 15 -7 29 -18 32 -25z m136
21 c0 -7 -30 -13 -34 -7 -3 4 4 9 15 9 10 1 19 0 19 -2z m512 -6 c2 -2 1 -3
-1 -2 -2 2 -9 -2 -16 -7 -8 -7 -12 -5 -12 4 0 12 22 16 29 5z m188 -3 c0 -2
-8 -10 -17 -17 -16 -13 -17 -12 -4 4 13 16 21 21 21 13z m-187 -31 c-3 -9 -8
-14 -10 -11 -3 3 -2 9 2 15 9 16 15 13 8 -4z m-813 -42 c0 -5 -5 -15 -10 -23
-7 -12 -9 -10 -7 8 1 19 17 33 17 15z"/>
<path d="M14210 5594 c6 -6 7 -14 3 -17 -3 -4 -1 -7 5 -7 7 0 11 -3 11 -7 -3
-20 2 -30 16 -30 8 0 11 5 8 10 -4 6 0 8 10 4 9 -3 18 1 21 10 4 10 2 13 -8
10 -15 -6 -50 26 -40 36 3 3 -3 5 -14 4 -15 -1 -18 -5 -12 -13z m35 -23 c3 -5
2 -12 -3 -15 -5 -3 -9 1 -9 9 0 17 3 19 12 6z"/>
<path d="M14225 5489 c-11 -16 -1 -19 13 -3 7 8 8 14 3 14 -5 0 -13 -5 -16
-11z"/>
<path d="M13690 5526 c0 -2 7 -7 16 -10 8 -3 12 -2 9 4 -6 10 -25 14 -25 6z"/>
<path d="M13865 5480 c-3 -5 -12 -7 -18 -4 -7 4 -9 4 -5 0 9 -11 -14 -35 -27
-28 -5 2 -5 -1 2 -8 10 -11 16 -9 32 11 11 13 20 19 21 12 0 -6 -5 -15 -10
-18 -6 -4 -8 -11 -5 -16 4 -5 2 -9 -2 -9 -5 0 -18 -6 -29 -14 -19 -14 -18 -15
3 -13 12 0 19 5 16 11 -4 5 1 7 9 3 9 -3 24 1 35 8 10 8 14 15 9 15 -5 0 -3 6
3 13 8 11 6 18 -8 31 -13 12 -21 14 -26 6z m25 -35 c-5 -6 -7 -14 -4 -17 2 -3
-2 -8 -10 -11 -9 -4 -13 0 -12 11 2 9 8 18 15 20 9 3 9 8 -1 20 -12 15 -11 16
5 3 12 -9 14 -17 7 -26z"/>
<path d="M13683 5453 c-15 -5 -17 -23 -4 -23 5 0 11 7 15 15 3 8 4 15 3 14 -1
0 -8 -3 -14 -6z"/>
<path d="M13796 5427 c3 -10 9 -15 12 -12 3 3 0 11 -7 18 -10 9 -11 8 -5 -6z"/>
<path d="M14114 5539 c-3 -5 -2 -9 2 -9 4 0 0 -8 -10 -19 -15 -16 -15 -20 -1
-31 8 -7 13 -16 10 -19 -2 -4 3 -8 11 -8 10 0 11 4 4 11 -7 7 -2 17 17 32 22
18 26 25 16 35 -16 16 -41 20 -49 8z m43 -16 c5 -13 -44 -46 -51 -34 -3 5 1
14 9 21 8 7 13 16 10 20 -3 5 3 7 12 6 9 -2 18 -7 20 -13z"/>
<path d="M14124 5508 l-19 -23 23 19 c21 18 27 26 19 26 -2 0 -12 -10 -23 -22z"/>
<path d="M13793 5515 c0 -8 4 -12 9 -9 5 3 6 10 3 15 -9 13 -12 11 -12 -6z"/>
<path d="M14999 5908 c-10 -33 6 -46 28 -24 4 4 1 6 -7 4 -8 -1 -14 3 -12 10
2 10 -6 19 -9 10z"/>
<path d="M15045 5900 c-3 -6 1 -7 9 -4 18 7 21 14 7 14 -6 0 -13 -4 -16 -10z"/>
<path d="M15066 5885 c-11 -8 -15 -15 -9 -15 6 0 16 7 23 15 16 19 11 19 -14
0z"/>
<path d="M14890 5881 c0 -6 4 -13 10 -16 6 -3 7 1 4 9 -7 18 -14 21 -14 7z"/>
<path d="M15096 5882 c-3 -5 1 -9 9 -9 8 0 12 4 9 9 -3 4 -7 8 -9 8 -2 0 -6
-4 -9 -8z"/>
<path d="M14629 5863 c-13 -16 -12 -17 4 -4 9 7 17 15 17 17 0 8 -8 3 -21 -13z"/>
<path d="M14464 5858 c9 -5 23 -5 32 0 12 6 7 9 -16 9 -23 0 -28 -3 -16 -9z"/>
<path d="M17976 5862 c-3 -5 1 -9 9 -9 8 0 12 4 9 9 -3 4 -7 8 -9 8 -2 0 -6
-4 -9 -8z"/>
<path d="M14420 5851 c0 -5 -10 -8 -22 -6 -13 2 -34 -4 -48 -15 -24 -18 -24
-19 -3 -17 12 0 21 5 20 10 -1 5 4 12 11 14 8 3 10 -2 6 -14 -5 -16 -5 -17 6
-1 6 9 17 15 25 12 9 -4 15 0 15 10 0 9 -2 16 -5 16 -3 0 -5 -4 -5 -9z"/>
<path d="M14503 5832 l-21 -28 27 1 c15 1 32 5 39 9 7 4 15 5 20 3 4 -3 16 7
26 22 l20 26 -22 -19 c-18 -15 -24 -17 -37 -6 -13 11 -15 10 -10 -1 4 -10 -2
-15 -15 -16 -17 -2 -18 1 -10 18 15 28 7 23 -17 -9z"/>
<path d="M14256 5834 c-3 -8 0 -16 7 -20 7 -4 9 -4 5 1 -4 4 0 13 8 20 15 11
15 12 1 12 -9 0 -18 -6 -21 -13z"/>
<path d="M14317 5843 c-4 -3 -7 -11 -7 -17 0 -6 5 -5 12 2 6 6 9 14 7 17 -3 3
-9 2 -12 -2z"/>
<path d="M14650 5840 c0 -5 5 -10 11 -10 5 0 7 5 4 10 -3 6 -8 10 -11 10 -2 0
-4 -4 -4 -10z"/>
<path d="M14750 5841 c0 -6 4 -13 10 -16 6 -3 7 1 4 9 -7 18 -14 21 -14 7z"/>
<path d="M14840 5840 c-9 -6 -10 -10 -3 -10 6 0 15 5 18 10 8 12 4 12 -15 0z"/>
<path d="M14135 5821 c-3 -5 -2 -12 3 -15 5 -3 9 1 9 9 0 17 -3 19 -12 6z"/>
<path d="M14596 5822 c-2 -4 4 -9 15 -9 11 -1 17 2 14 8 -7 11 -22 12 -29 1z"/>
<path d="M14707 5815 c-4 -8 -3 -16 1 -19 4 -3 9 4 9 15 2 23 -3 25 -10 4z"/>
<path d="M17910 5819 c0 -5 5 -7 10 -4 6 3 10 8 10 11 0 2 -4 4 -10 4 -5 0
-10 -5 -10 -11z"/>
<path d="M14218 5813 c21 -8 13 -21 -10 -17 -21 4 -21 4 -3 -4 21 -10 45 -5
45 8 0 8 -26 21 -38 19 -4 0 -1 -3 6 -6z"/>
<path d="M17874 5798 c-10 -13 -15 -20 -10 -16 5 4 15 3 22 -3 8 -7 14 -7 19
1 4 6 3 10 -2 9 -20 -3 -25 2 -13 16 7 8 10 15 8 15 -3 0 -13 -10 -24 -22z"/>
<path d="M14090 5795 c5 -7 6 -16 2 -21 -4 -5 -3 -5 2 -1 15 12 15 34 0 34 -9
0 -11 -4 -4 -12z"/>
<path d="M14136 5774 c-9 -8 -16 -12 -16 -8 0 5 -5 3 -12 -4 -7 -7 -17 -8 -29
-2 -12 7 -20 6 -25 -2 -5 -7 -3 -8 6 -3 10 6 12 4 6 -10 -5 -15 -4 -16 9 -5 8
7 15 9 15 5 0 -4 6 -2 13 4 8 6 16 9 19 6 3 -3 11 1 18 10 15 17 35 21 24 3
-4 -7 -3 -8 4 -4 7 4 12 11 12 17 0 14 -27 11 -44 -7z"/>
<path d="M13695 5761 c-3 -5 -2 -12 3 -15 5 -3 9 1 9 9 0 17 -3 19 -12 6z"/>
<path d="M13762 5758 c-15 -15 -15 -28 0 -28 6 0 8 3 5 7 -4 3 -2 12 4 20 14
16 7 17 -9 1z"/>
<path d="M17860 5760 c8 -5 20 -10 25 -10 6 0 3 5 -5 10 -8 5 -19 10 -25 10
-5 0 -3 -5 5 -10z"/>
<path d="M13825 5736 c11 -9 19 -20 18 -24 -1 -4 5 -6 14 -4 9 2 12 -1 8 -8
-6 -9 -2 -9 13 -1 29 16 34 14 22 -8 -8 -15 -7 -19 7 -17 27 4 57 56 32 56 -5
0 -7 -4 -4 -10 8 -13 -11 -13 -37 1 -15 8 -19 8 -14 0 4 -6 2 -11 -3 -11 -6 0
-11 8 -12 18 0 10 -3 12 -6 5 -3 -9 -11 -9 -31 3 -25 15 -26 15 -7 0z m105
-40 c0 -3 -4 -8 -10 -11 -5 -3 -10 -1 -10 4 0 6 5 11 10 11 6 0 10 -2 10 -4z"/>
<path d="M13905 5740 c-3 -6 1 -7 9 -4 18 7 21 14 7 14 -6 0 -13 -4 -16 -10z"/>
<path d="M17828 5743 c6 -2 18 -2 25 0 6 3 1 5 -13 5 -14 0 -19 -2 -12 -5z"/>
<path d="M13674 5719 c-3 -6 -2 -15 3 -20 5 -5 9 -1 10 11 2 22 -2 25 -13 9z"/>
<path d="M13720 5726 c0 -2 7 -7 16 -10 8 -3 12 -2 9 4 -6 10 -25 14 -25 6z"/>
<path d="M13788 5723 c7 -3 16 -2 19 1 4 3 -2 6 -13 5 -11 0 -14 -3 -6 -6z"/>
<path d="M17810 5716 c0 -8 4 -18 10 -21 5 -3 7 0 4 9 -4 11 0 14 16 11 13 -2
20 -1 16 2 -14 14 -46 13 -46 -1z"/>
<path d="M13550 5699 c0 -5 5 -7 10 -4 6 3 10 8 10 11 0 2 -4 4 -10 4 -5 0
-10 -5 -10 -11z"/>
<path d="M13630 5708 c0 -2 9 -11 20 -21 11 -9 20 -13 20 -7 0 5 -9 14 -20 20
-11 6 -20 9 -20 8z"/>
<path d="M13594 5680 c0 -13 4 -16 10 -10 7 7 7 13 0 20 -6 6 -10 3 -10 -10z"/>
<path d="M13610 5659 c-19 -10 -27 -19 -18 -19 8 0 26 9 39 20 30 24 24 24
-21 -1z"/>
<path d="M17795 5660 c-3 -5 -1 -10 4 -10 6 0 11 5 11 10 0 6 -2 10 -4 10 -3
0 -8 -4 -11 -10z"/>
<path d="M17856 5662 c-3 -5 1 -9 9 -9 8 0 12 4 9 9 -3 4 -7 8 -9 8 -2 0 -6
-4 -9 -8z"/>
<path d="M17686 5652 c-2 -4 -1 -14 4 -22 7 -11 9 -9 7 8 -1 24 -3 26 -11 14z"/>
<path d="M13550 5633 c6 -14 16 -20 25 -17 18 7 20 17 3 11 -7 -2 -19 3 -26
12 -11 14 -12 13 -2 -6z"/>
<path d="M17810 5619 c0 -5 5 -7 10 -4 6 3 10 8 10 11 0 2 -4 4 -10 4 -5 0
-10 -5 -10 -11z"/>
<path d="M13427 5599 c7 -7 15 -10 18 -7 3 3 -2 9 -12 12 -14 6 -15 5 -6 -5z"/>
<path d="M13506 5563 c-6 -14 -5 -15 5 -6 7 7 10 15 7 18 -3 3 -9 -2 -12 -12z"/>
<path d="M13472 5563 c1 -4 -4 -18 -11 -31 -10 -19 -15 -21 -27 -11 -12 10
-13 9 -8 -5 3 -9 9 -16 13 -16 21 1 56 56 41 65 -6 4 -9 3 -8 -2z"/>
<path d="M17635 5560 c3 -5 8 -10 11 -10 2 0 4 5 4 10 0 6 -5 10 -11 10 -5 0
-7 -4 -4 -10z"/>
<path d="M13380 5430 c6 -11 13 -20 16 -20 2 0 0 9 -6 20 -6 11 -13 20 -16 20
-2 0 0 -9 6 -20z"/>
<path d="M13377 5290 c3 -11 9 -20 15 -20 5 0 4 9 -2 20 -6 11 -12 20 -14 20
-2 0 -2 -9 1 -20z"/>
<path d="M13366 5182 c-3 -5 1 -9 9 -9 8 0 12 4 9 9 -3 4 -7 8 -9 8 -2 0 -6
-4 -9 -8z"/>
<path d="M13359 5138 c-5 -18 -6 -38 -1 -34 7 8 12 36 6 36 -2 0 -4 -1 -5 -2z"/>
<path d="M13296 5087 c3 -10 9 -15 12 -12 3 3 0 11 -7 18 -10 9 -11 8 -5 -6z"/>
<path d="M13339 5073 c-13 -16 -12 -17 4 -4 16 13 21 21 13 21 -2 0 -10 -8
-17 -17z"/>
<path d="M13355 5060 c-3 -5 -1 -10 4 -10 6 0 11 5 11 10 0 6 -2 10 -4 10 -3
0 -8 -4 -11 -10z"/>
<path d="M13250 5045 c0 -5 5 -17 10 -25 5 -8 10 -10 10 -5 0 6 -5 17 -10 25
-5 8 -10 11 -10 5z"/>
<path d="M13465 4989 c-4 -6 -5 -12 -2 -15 2 -3 7 2 10 11 7 17 1 20 -8 4z"/>
<path d="M13180 4946 c0 -2 8 -10 18 -17 15 -13 16 -12 3 4 -13 16 -21 21 -21
13z"/>
<path d="M13495 4940 c3 -5 8 -10 11 -10 2 0 4 5 4 10 0 6 -5 10 -11 10 -5 0
-7 -4 -4 -10z"/>
<path d="M13295 4900 c-3 -5 -1 -10 4 -10 6 0 11 5 11 10 0 6 -2 10 -4 10 -3
0 -8 -4 -11 -10z"/>
</g>
</svg>
